<svg xmlns="http://www.w3.org/2000/svg" xmlns:xlink="http://www.w3.org/1999/xlink">
<defs>
<symbol xmlns="http://www.w3.org/2000/svg" width="400" height="400" id="ebelleon" viewBox="0 0 400 400"><path d="M179.67 3.491c-66.988 6.75-127.632 49.245-157.123 110.102C-41.37 245.485 54.31 397.422 201.1 397.131c15.84-.031 20.728-.349 31.32-2.033 77.72-12.357 142.862-74.26 160.3-152.327 29.257-130.975-79.186-252.77-213.05-239.28m-44.775 121.032c2.868 1.399 8.924 4.549 13.457 7s11.344 5.579 15.136 6.953c8.298 3.005 8.18 3.944-.274 2.189-6.57-1.364-14.737 2.85-10.544 5.441 1.112.688.76 1.369-1.46 2.824-1.6 1.054-2.68 2.164-2.38 2.465s-.42 1.776-1.6 3.277-1.875 3.169-1.543 3.706-.346 2.334-1.506 3.992-3.68 6.333-5.6 10.389-3.968 7.671-4.553 8.032-1.063 1.617-1.063 2.79-.524 2.133-1.164 2.133-.84.526-.442 1.168-.044 2.016-.98 3.051c-11.486 12.692 13.07 28.181 29.657 18.706 6.87-3.926 13.735-9.859 16.158-13.965 1.24-2.104 2.438-3.28 2.66-2.613s-.326 2.354-1.22 3.751-2.935 6.496-4.538 11.331c-5.757 17.366-6.188 17.759-14.575 13.298-2.875-1.529-9.77-4.752-15.32-7.162s-15.726-7.335-22.61-10.943-15.043-7.388-18.135-8.399c-6.88-2.25-11.617-5.515-6.304-4.344 8.224 1.813 13.736 1.872 13.736.148 0-.925.866-1.956 1.924-2.291 1.894-.602 4.802-5.827 5.174-9.3.404-3.766 1.98-7.82 3.04-7.82.61 0 .857-.957.55-2.127-.33-1.26.095-2.377 1.04-2.74.878-.337 1.315-1.068.97-1.625s-.236-1.179.24-1.382 3.907-6.402 7.625-13.777c7.892-15.655 8.03-19.659.8-23.107-3.62-1.726-5.01-3.594-2.677-3.594.607 0 3.45 1.145 6.318 2.545m4.968 8.444c.137 1.826.916 2.181 4.602 2.099l4.436-.099-3.6-1.042c-1.986-.572-3.317-1.517-2.958-2.098s-.086-1.058-.99-1.058c-.968 0-1.577.905-1.48 2.198m1.62 4.194c-4.834.556-3.486 2.412 1.648 2.269 4.69-.13 12.22-1.625 10.165-2.017-2.327-.443-8.926-.584-11.813-.252m6.705 2.929c-.29.291-3.176.91-6.41 1.375-7.197 1.036-8.698 3.288-1.967 2.953 5.092-.254 6.717.242 5.776 1.763-.33.536-1.652.587-2.934.112-2.654-.981-9.93 1.147-10.58 3.094-.304.913 1.224 1.055 5.456.509 7.24-.933 11.156-2.315 10.333-3.646-.342-.554-.001-1.258.76-1.564 1.035-.417 1.006-.578-.115-.643-.934-.054-.52-.899 1.1-2.248 1.954-1.628 2.165-2.17.854-2.198-.957-.02-1.978.202-2.27.493m-17.42 13.207c-1.635 1.97-1.315 1.973 7.143.064l6.593-1.487-6.184-.113c-4.266-.078-6.608.398-7.552 1.536m-2.676 7.027c-1.07 1.734 1.962 1.953 8.17.59l6.044-1.327-6.804-.123c-3.74-.068-7.076.319-7.41.86m4.325 3.412c-.81 1.312 1.342 1.312 4.395 0 1.963-.843 1.88-.952-.76-1.021-1.627-.043-3.263.417-3.636 1.021m-6.027 3.532l-3.83 1.06 2.73 1.511c2.64 1.462 2.65 1.513.322 1.551-3.225.052-4.044 1.671-1.92 3.796 1.583 1.583 1.535 1.737-.54 1.737-1.252 0-2.276.448-2.276.996 0 .983.972.86 9.07-1.155 4.045-1.006 6.496-3.565 7.882-8.227.804-2.701-4.247-3.261-11.44-1.269m110.712 5.311c1.05.633 15.507 6.985 32.128 14.115 24.766 10.624 30.155 13.318 29.864 14.925-.61 3.372-11.594 25.854-12.63 25.854-.563 0-.583-.823-.045-1.924 3.163-6.471-.395-26.495-5.64-31.739-3.543-3.543-20.76-7.94-20.945-5.348-.043.604-.9 3.005-1.927 5.336s-1.602 4.637-1.3 5.126.175 1.054-.282 1.257c-1.512.67-4.817 7.496-4.152 8.572.36.581-.354 2.064-1.584 3.295-3.155 3.154-2.816 4.306 1.836 6.25 8.97 3.748 13.844 1.775 18.55-7.506 2.493-4.917 4.847-7.616 4.847-5.557 0 .532-1.6 3.899-3.553 7.482-3.42 6.271-4.653 9.235-10.187 24.486-2.456 6.771-4.94 10.866-4.94 8.143 0-.686.507-2.58 1.126-4.209 1.744-4.588-.685-15.044-4.274-18.402-5.638-5.272-8.7-4.822-7.923 1.166.098.756-.338 1.374-.97 1.374s-1.147.989-1.147 2.198-.482 2.197-1.07 2.197c-1.083 0-5.522 8.786-5.522 10.929 0 .638-.37 1.165-.825 1.172s-1.77 1.985-2.924 4.395-2.885 4.424-3.846 4.473c-2.844.147 9.323 5.268 18.108 7.623 10.347 2.772 15.464 2.746 20.14-.105 3-1.83 3.924-1.991 4.716-.82.78 1.153.93 1.113.72-.194-.145-.907 1.78-4.766 4.278-8.576s4.755-7.519 5.014-8.242.8-1.011 1.204-.64-1.507 4.957-4.245 10.192-4.98 10.479-4.98 11.655c0 1.644-3.334 9.531-5.03 11.896-.296.413-6.066-2.165-24.092-10.76-17.217-8.21-38.5-17.613-39.862-17.613-1.32 0-4.054-3.153-3.346-3.861.28-.281 2.464.256 4.85 1.194 5.93 2.33 9.884.78 12.093-4.744.908-2.27 2.868-6.43 4.355-9.244 4.337-8.208 5.987-13.663 4.563-15.087-.9-.901-.725-1.225.667-1.225 1.04 0 2.43-1.36 3.1-3.022s2.38-5.367 3.823-8.234 2.624-5.688 2.624-6.27 1.236-2.88 2.747-5.106c5.07-7.473 3.328-11.897-6.32-16.033-1.058-.454-1.923-1.088-1.923-1.41 0-.954 2.09-.668 4.136.566m-113.774 6.835c-3.715.893-4.567 1.525-4.088 3.034.36 1.133-.077 2.169-1.076 2.552-.925.355-1.68 1.378-1.68 2.274s-.866 2.175-1.924 2.844c-2.017 1.277 4.425.65 8.195-.797 1.148-.44 1.552-.154 1.215.858-.582 1.744-4.25 2.96-9.4 3.118-4.318.132-4.84 2.312-.55 2.295 9.095-.036 16.3-5.241 13.54-9.779-.15-.248.512-.89 1.472-1.428 2.256-1.263 2.332-4.321.086-3.459-1.188.456-1.467.134-.98-1.133.374-.974.503-1.712.287-1.639s-2.504.639-5.085 1.26m124.473 10.696c-3.04.774-3.084.848-.55.952 1.51.062 3.49-.366 4.395-.952 1.87-1.209.904-1.209-3.846 0m.576 7.275c-4.646 1.073-6.208 1.091-6.852.08-.566-.892-.838-.713-.85.557-.01 1.028-.882 2.42-1.94 3.094-1.504.958-.752 1.09 3.45.604 2.956-.342 6.323-.621 7.483-.621s1.803-.495 1.43-1.099.063-1.099.97-1.099c1.528 0 3.583-1.989 2.712-2.625-.21-.155-3.092.344-6.402 1.109m-130.246.417c-.395.64.7 1.099 2.617 1.099 1.814 0 3.603-.494 3.976-1.099.395-.639-.7-1.099-2.617-1.099-1.813 0-3.603.495-3.976 1.099m49.478 9.184c-1.23.901-1.567 1.743-.868 2.175.627.388 1.762-.043 2.52-.958 1.872-2.256.824-3.028-1.653-1.217m-6.123 6.296c-.618 1.157-1.85 2.103-2.734 2.103-2.774 0-1.76 1.659 1.848 3.021 3.65 1.378 6.647.684 4.077-.944-1.15-.728-1.033-.949.508-.962 1.42-.012 1.898-.703 1.65-2.39-.45-3.037-3.88-3.569-5.348-.828m75.326-.095c-4.208.753-4.123.793 1.988.943 4.012.098 6.13-.253 5.704-.943-.732-1.186-1.07-1.186-7.692 0m-3.846 4.395c-2.082 1.346 1.292 1.346 5.495 0 2.692-.862 2.68-.881-.55-.972-1.813-.051-4.038.387-4.945.972m1.648 3.297c-2.012.865-1.966.95.55 1.005 1.51.033 3.49-.419 4.395-1.005 2.163-1.398-1.692-1.398-4.945 0m-1.877 6.511c-6.416.896-8.095 2.28-2.766 2.28 2.18 0 4.27.495 4.643 1.099.386.623-.538 1.099-2.133 1.099-1.546 0-2.812.504-2.812 1.12 0 .646 1.163.828 2.748.43 1.917-.481 2.752-.238 2.764.804.013 1.185.225 1.163 1.026-.104.555-.877.766-1.99.468-2.472s.01-.877.687-.877.923-.494.55-1.099.12-1.099 1.1-1.099 1.472-.494 1.1-1.098-1.02-1.033-1.44-.953-3.087.473-5.933.87m-9.386 10.007c-1.36.546-2.473 1.221-2.473 1.499 0 .874 12.585-.665 13.68-1.673 1.38-1.267-7.985-1.122-11.208.174m2.472 5.595c-9.148 1.644-10.555 2.086-9.92 3.113.358.58 2.072.566 4.16-.032 1.952-.56 5.106-1.018 7-1.018 2.063 0 3.717-.666 4.094-1.648.348-.907.524-1.593.392-1.526s-2.713.568-5.735 1.111m-5.44 5.287c.61.6 2.64.646 4.9.112l3.846-.913-4.9-.113c-3.04-.07-4.495.276-3.846.914m25.77 11.64c0 .535 6.15 3.817 7.153 3.817.368 0 .393-.446.057-.99-.648-1.047-7.2-3.62-7.2-2.827" fill-rule="evenodd"/></symbol>
<symbol xmlns="http://www.w3.org/2000/svg" viewBox="0 0 277.8 150.2" id="jochen-schweizer-without-slogan" fill="#007aa5"><path d="M127 26.6c-8.5 0-13.6 6.2-13.6 19.7s5 19.6 13.5 19.6 13.7-6.2 13.7-19.7-5.1-19.6-13.6-19.6m0 31.4c-2.8 0-4.3-2.7-4.3-11.9s1.4-11.7 4.2-11.7c2.9 0 4.3 2.7 4.3 11.9S129.8 58 127 58m124.2 47.4L245.6 89c3.1-1.8 5-5 5-10 0-8.5-5-11.6-11.8-11.6h-13.2v38.1h8.9V90.9h2.4l4.5 14.6 9.8-.1zm-9.6-26.2c0 3.2-1 4.7-3.6 4.7h-3.4v-9.3h3.6c2.5 0 3.4 1.5 3.4 4.6"/><path d="M223.9 105.4v-7.7h-13.2v-8.3h8.6v-7.7h-8.6v-6.6H224v-7.7h-22.3v38zm-23.9 0v-7.6h-5.8l-7.7.1 4.9-8.5 8.6-15.3v-6.8h-23.8v7.6h5.9l7.8-.1-4.9 8.4-8.8 15.3v6.8l23.8.1zm-34.7-38h9.2v38.1h-9.2zm-1.7 38v-7.7h-13.7v-8.3h8.7v-7.7h-8.7v-6.6h13.7v-7.7h-22.7v38z"/><path d="M141.1 67.4h-8.9l-.8 7-1.5 16c-.4-4.7-1.3-11.2-2-15.9l-1.1-7H119l-1 7c-.7 4.7-1.6 11.2-2 15.9a288.26 288.26 0 0 0-1.5-16l-.9-7h-8.9l6.6 38.1h8.3l1.2-7.5c1-5.8 1.8-12.1 2.1-15.5.2 3.3 1.1 9.7 2.1 15.5l1.2 7.5h8.4l6.5-38.1z"/><path d="M105 105.4v-38h-9.2v14.2h-7.6V67.4H79v38h9.2V89.5h7.6v15.9zM77.3 94.9L68.9 92c-1 4.7-1.7 6.2-3.9 6.2-3 0-4.2-3.1-4.2-11.9s1.2-11.7 4.1-11.7c2.2 0 2.8 2.2 3.5 6.4l8.8-2.4C75.7 71.3 73 66.8 65 66.8c-8.5 0-13.5 6.5-13.5 19.7 0 12.8 4.5 19.6 13.4 19.6 7.5-.1 10.8-4.3 12.4-11.2"/><path d="M50.3 94.8c0-6.4-2.8-9.5-10.5-12.9-3.8-1.6-4.8-2.8-4.8-4.8-.1-1.4 1.1-2.7 2.5-2.7h.2c2.4 0 3.3 1 5.9 4.1l6.3-5.7c-3.2-3.9-6.1-6-12-6-7.3 0-11.8 4.9-11.8 11.1 0 6 2.8 8.8 10.3 12.2 4.3 1.9 4.9 3.2 4.9 5.3s-1.3 3-3.3 3-3.9-1.6-6.5-4.6l-6.2 5.6c3.2 4.2 6.6 6.6 12.6 6.6 7.2 0 12.4-4.1 12.4-11.2m197.1-29.6v-38h-8.5v8.5c0 3.5.1 8.8.3 10.8-1.4-3.7-3.1-7.2-5.1-10.7l-4.8-8.7h-7.9v38h8.6V54.5c0-3.6-.1-8.4-.3-10.6 1.4 3.6 3.1 7 4.9 10.4l5.6 10.9h7.2z"/><path d="M219.7 65.2v-7.7h-13.3v-8.3h8.7v-7.7h-8.7V35h13.3v-7.8h-22.3v38zm-24 0v-38h-9.2v14.2h-7.6V27.2h-9.2v38h9.2V49.3h7.6v15.9zm-27-10.5l-9.1-2.9c-1 4.7-1.7 6.2-3.9 6.2-3 0-4.2-3.1-4.2-11.8s1.1-11.7 4.1-11.7c2.2 0 2.8 2.2 3.5 6.4l8.8-2.4c-1.5-7.3-4.2-11.9-12.2-11.9-8.5 0-13.5 6.5-13.5 19.7 0 12.8 4.5 19.6 13.4 19.6 7.6-.1 11.4-4.3 13.1-11.2m-57.1-2.5v-25h-9.2v25.9c0 3.2-1 4.8-3.3 4.8-2.6 0-3.4-2.1-4.2-6l-8.7 2C87.3 61 90.8 65.7 99 65.7c8.5.1 12.6-4.8 12.6-13.5"/></symbol>
<symbol xmlns="http://www.w3.org/2000/svg" xmlns:xlink="http://www.w3.org/1999/xlink" viewBox="0 0 226.2 100.2" id="jochen-schweizer-with-slogan"><g fill="#007aa5"><path d="M101.6.3C93.1.3 88 6.5 88 20c0 13.4 5 19.6 13.5 19.6 8.6 0 13.7-6.3 13.7-19.7S110.1.3 101.6.3m0 31.4c-2.8 0-4.3-2.7-4.3-11.9s1.4-11.7 4.2-11.7 4.3 2.7 4.3 11.9c0 9.1-1.4 11.7-4.2 11.7m124.2 47.4l-5.6-16.4c3.1-1.9 5-5.1 5-10 0-8.5-4.9-11.6-11.8-11.6h-13.2v38.1h8.9V64.6h2.4l4.5 14.6 9.8-.1zm-9.6-26.2c0 3.2-1 4.7-3.6 4.7h-3.4v-9.3h3.6c2.5 0 3.4 1.5 3.4 4.6"/><path d="M198.5 79.1v-7.7h-13.2v-8.3h8.6v-7.7h-8.6v-6.6h13.3v-7.7h-22.3v38zm-24 0v-7.5h-5.8l-7.7.1 4.9-8.5 8.6-15.3V41h-23.7v7.6h5.9l7.8-.1-4.9 8.4-8.8 15.3V79l23.7.1zm-34.6-38h9.2v38.1h-9.2zm-1.7 38v-7.7h-13.7v-8.3h8.7v-7.7h-8.7v-6.6h13.7v-7.7h-22.7v38z"/><path d="M115.7 41.1h-8.9l-.8 7-1.5 16c-.4-4.7-1.3-11.2-2-15.9l-1.1-7h-7.8l-1 7c-.7 4.7-1.6 11.2-2 15.9-.3-4.8-.9-11.3-1.5-16l-.9-7h-8.9l6.6 38.1h8.3l1.2-7.5c1-5.8 1.9-12.1 2.1-15.5.2 3.3 1.1 9.7 2.1 15.5l1.2 7.5h8.4l6.5-38.1z"/><path d="M79.6 79.1v-38h-9.2v14.2h-7.6V41.1h-9.2v38h9.2V63.2h7.6v15.9zM51.9 68.6l-8.4-2.9c-1 4.7-1.7 6.2-3.9 6.2-3 0-4.2-3.1-4.2-11.9 0-8.6 1.2-11.7 4.1-11.7 2.2 0 2.8 2.2 3.5 6.4l8.8-2.4c-1.5-7.3-4.2-11.8-12.2-11.8-8.5 0-13.5 6.5-13.5 19.7 0 12.8 4.5 19.6 13.4 19.6 7.5-.1 10.7-4.3 12.4-11.2"/><path d="M24.9 68.5c0-6.4-2.8-9.5-10.5-12.9-3.8-1.6-4.8-2.8-4.8-4.8 0-1.4 1-2.7 2.7-2.7 2.4 0 3.3 1 5.9 4.1l6.3-5.7c-3.1-3.9-6.1-6-12-6C5.2 40.5.7 45.4.7 51.6c0 6 2.8 8.9 10.3 12.2 4.3 1.9 4.9 3.2 4.9 5.3s-1.4 3-3.3 3c-1.8 0-3.9-1.6-6.5-4.6l-6.2 5.6c3.1 4.2 6.6 6.6 12.5 6.6 7.3 0 12.5-4 12.5-11.2M222 38.9V.9h-8.5v8.5c0 3.5.1 8.8.3 10.8-.7-2.1-2.9-6.7-5.1-10.7L203.9.8H196v38h8.5V28.2c0-3.6-.1-8.4-.3-10.6.8 2.2 2.8 6.3 4.9 10.4l5.6 10.9h7.3z"/><path d="M194.3 38.9v-7.7H181v-8.3h8.7v-7.7H181V8.7h13.3V.9H172v38zm-24 0V.9h-9.2v14.2h-7.7V.9h-9.1v38h9.1V23h7.7v15.9zm-27-10.5l-9.1-2.9c-1 4.7-1.7 6.2-3.9 6.2-3 0-4.2-3.1-4.2-11.9 0-8.6 1.1-11.7 4.1-11.7 2.2 0 2.8 2.2 3.5 6.4l8.8-2.4C141 4.8 138.3.3 130.3.3c-8.5 0-13.5 6.5-13.5 19.7 0 12.8 4.5 19.6 13.4 19.6 7.6-.1 11.4-4.3 13.1-11.2m-57.1-2.5V.9H77v25.9c0 3.2-1 4.8-3.3 4.8-2.6 0-3.4-2.1-4.2-6l-8.7 2.1c1.1 7.1 4.6 11.9 12.8 11.9 8.6-.1 12.6-5 12.6-13.7M60.8 84.8H65c.9 0 1.6.1 2.2.4.5.3 1 .7 1.3 1.3.3.5.5 1.2.6 2l.2 2.6c0 1.1-.1 2.1-.2 2.9s-.4 1.5-.7 2-.8.9-1.3 1.2c-.6.3-1.3.4-2.1.4h-4.1l-.1-12.8zm2.6 10.8h1.2c.4 0 .8-.1 1.1-.2a1.85 1.85 0 0 0 .7-.8c.2-.4.3-.8.3-1.4.1-.6.1-1.3.1-2.2 0-.7 0-1.4-.1-1.9 0-.5-.1-1-.3-1.4a1.85 1.85 0 0 0-.7-.8c-.3-.2-.7-.3-1.2-.3h-1.1v9zm12.5.8h0c-.3.5-.6.8-1.1 1-.4.2-.9.3-1.4.3-.8 0-1.4-.2-1.8-.6S71 96 71 95v-7.1h2.5v6.6c0 .5.1.9.3 1 .2.2.4.3.8.3.9 0 1.3-.5 1.3-1.6v-6.4h2.5v9.6H76l-.1-1z"/><use xlink:href="#B"/><path d="M93.2 84.6h2.5v2.1h-2.5v-2.1zm0 3.3h2.5v9.6h-2.5v-9.6z"/><use xlink:href="#C"/><path d="M105.9 85.1h2.5v2.8h1.4v1.7h-1.4v5.2c0 .4.1.7.2.8.1.2.3.2.7.2h.6v1.7c-.3 0-.5 0-.8.1h-.8c-.5 0-.9 0-1.2-.1s-.5-.2-.7-.4-.3-.5-.3-.8c-.1-.3-.1-.7-.1-1.2v-5.5h-1.4v-1.7h1.3v-2.8zm7.3 9.6V97c0 .5 0 .9-.1 1.3s-.2.7-.4 1-.4.5-.7.7-.7.3-1.2.3V99c.3-.1.5-.2.7-.5s.2-.6.2-.9v-.3h-.9v-2.6h2.4zm4.7-6.8h2.5l1.1 6.8 1.2-6.8h2.7l1.3 6.8 1.2-6.8h2.4l-2.1 9.6h-2.8l-1.3-6.8-1.2 6.8H120l-2.1-9.6zm13.3 3v-.2c0-.5.1-1 .3-1.4s.4-.7.7-.9.7-.4 1.1-.5.9-.2 1.3-.2c.7 0 1.3.1 1.8.2s.8.3 1.1.6.4.6.5.9c.1.4.1.8.1 1.2v5.1c0 .5 0 .8.1 1.1 0 .3.1.5.2.8H136c-.1-.2-.1-.3-.2-.5 0-.2-.1-.3-.1-.5h0c-.3.5-.6.8-1 1s-.9.3-1.5.3c-.4 0-.8-.1-1.1-.3s-.5-.4-.7-.6c-.2-.3-.3-.6-.4-.9s-.1-.7-.1-1c0-.5 0-.8.1-1.2.1-.3.2-.6.4-.8s.4-.4.8-.6c.3-.2.7-.3 1.1-.4l1.4-.4c.4-.1.6-.2.8-.4.1-.2.2-.4.2-.7 0-.4-.1-.7-.3-.9s-.5-.3-.9-.3-.7.1-.9.3-.3.5-.3.9v.3h-2.1zm4.5 1.8c-.2.1-.3.2-.5.3s-.4.1-.5.2c-.5.1-.9.3-1.1.5a1.69 1.69 0 0 0-.3 1c0 .4.1.7.2.9.1.3.4.4.7.4.2 0 .3 0 .5-.1s.3-.1.5-.3c.1-.1.3-.3.4-.5s.1-.4.1-.7v-1.7z"/><use xlink:href="#C" x="42.4"/><path d="M157 96.5h0c-.3.5-.6.8-1 1-.3.2-.8.3-1.3.3-1 0-1.8-.4-2.2-1.2-.5-.8-.7-2.1-.7-3.9s.2-3.1.7-3.9 1.2-1.2 2.2-1.2c.5 0 .9.1 1.2.3s.6.5.9.9h0v-4h2.5v12.8h-2.4v-1.1h.1zm-2.7-3.8c0 1.1.1 1.8.2 2.4.2.5.5.8 1 .8s.9-.3 1.1-.8.2-1.3.2-2.4a14.36 14.36 0 0 0-.2-2.4c-.2-.5-.5-.8-1.1-.8-.5 0-.9.3-1 .8a14.36 14.36 0 0 0-.2 2.4zm11.6 3.7h0c-.3.5-.6.8-1.1 1-.4.2-.9.3-1.4.3-.8 0-1.4-.2-1.8-.6S161 96 161 95v-7.1h2.5v6.6c0 .5.1.9.3 1 .2.2.4.3.8.3.9 0 1.3-.5 1.3-1.6v-6.4h2.5v9.6H166v-1h-.1zm10.4-3.3v.8c0 .3 0 .6.1.8 0 .3.1.5.2.7s.2.4.4.5.3.2.6.2c.4 0 .7-.1.9-.4s.3-.8.4-1.4h2.2c0 1.1-.3 2-.9 2.6-.5.6-1.4.9-2.6.9-.9 0-1.6-.2-2.1-.5s-.9-.7-1.1-1.2-.4-1-.4-1.7c-.1-.6-.1-1.2-.1-1.8s0-1.3.1-1.9.3-1.1.5-1.6c.3-.5.7-.8 1.2-1.1s1.2-.4 2-.4c.7 0 1.3.1 1.8.3s.8.6 1.1 1 .4.9.5 1.5.1 1.3.1 2v.6l-4.9.1zm2.6-1.5c0-.4 0-.7-.1-1 0-.3-.1-.5-.2-.7a.78.78 0 0 0-.4-.4c-.2-.1-.4-.2-.6-.2-.3 0-.5.1-.6.2-.2.1-.3.3-.4.4-.1.2-.2.4-.2.6s-.1.5-.1.7v.4h2.6zm3.6-3.7h2.4v1.3c.2-.5.6-.8.9-1.1.4-.3.8-.4 1.3-.4h.4v2.4h-.8c-.2 0-.4 0-.6.1l-.6.3c-.2.1-.3.3-.4.5s-.2.5-.2.8v5.8h-2.5v-9.7h.1zm6.1-3.1h2.5v12.8h-2.5V84.8zm6.3 8.3v.8c0 .3 0 .6.1.8 0 .3.1.5.2.7s.2.4.4.5.3.2.6.2c.4 0 .7-.1.9-.4s.3-.8.4-1.4h2.2c0 1.1-.3 2-.9 2.6-.5.6-1.4.9-2.6.9-.9 0-1.6-.2-2.1-.5s-.9-.7-1.1-1.2-.4-1-.4-1.7c-.1-.6-.1-1.2-.1-1.8s0-1.3.1-1.9.3-1.1.5-1.6c.3-.5.7-.8 1.2-1.1s1.2-.4 2-.4c.7 0 1.3.1 1.8.3s.8.6 1.1 1 .4.9.5 1.5.1 1.3.1 2v.6l-4.9.1zm2.5-1.5c0-.4 0-.7-.1-1 0-.3-.1-.5-.2-.7a.78.78 0 0 0-.4-.4c-.2-.1-.4-.2-.6-.2s-.5.1-.6.2c-.2.1-.3.3-.4.4-.1.2-.2.4-.2.6s-.1.5-.1.7v.4h2.6z"/><use xlink:href="#B" x="116.9"/><path d="M211.8 94.4v.3c0 .4.1.8.3 1 .2.3.5.4 1 .4.4 0 .7-.1.9-.3s.3-.5.3-.9c0-.3-.1-.5-.3-.7s-.4-.3-.6-.4l-1.7-.6a2.84 2.84 0 0 1-1.5-1c-.3-.4-.5-1-.5-1.7 0-.4.1-.8.2-1.1.1-.4.3-.7.6-.9.3-.3.7-.5 1.1-.6.4-.2 1-.2 1.6-.2 1.1 0 2 .2 2.5.7s.8 1.2.8 2v.4h-2.2c0-.5-.1-.9-.2-1.1-.2-.2-.4-.3-.9-.3-.3 0-.6.1-.8.3s-.3.4-.3.8c0 .2.1.5.2.6.1.2.4.4.8.5l1.5.5c.8.3 1.3.6 1.6 1s.5 1 .5 1.7c0 .5-.1.9-.3 1.3s-.4.7-.7.9-.7.4-1.1.6c-.4.1-.9.2-1.4.2a7.18 7.18 0 0 1-1.7-.2c-.5-.1-.8-.3-1.1-.6s-.5-.6-.6-1-.2-.8-.2-1.3v-.3h2.2zm6.7-9.3h2.5v2.8h1.4v1.7H221v5.2c0 .4.1.7.2.8.1.2.3.2.7.2h.6v1.7c-.3 0-.5 0-.8.1h-.8c-.5 0-.9 0-1.2-.1s-.5-.2-.7-.4-.3-.5-.3-.8c-.1-.3-.1-.7-.1-1.2v-5.5h-1.3v-1.7h1.3l-.1-2.8zm7.3 9.6v2.8h-2.4v-2.8h2.4z"/></g><defs ><path id="B" d="M84.2 84.8h2.5v4c.3-.4.6-.7.9-.9s.7-.3 1.2-.3c1 0 1.8.4 2.2 1.2.5.8.7 2.1.7 3.9s-.2 3.1-.7 3.9-1.2 1.2-2.2 1.2c-.5 0-.9-.1-1.3-.3-.3-.2-.6-.5-.9-1h0v1h-2.4V84.8zm2.4 7.9c0 1.1.1 1.8.2 2.4.2.5.5.8 1.1.8.5 0 .9-.3 1-.8.2-.5.2-1.3.2-2.4a14.36 14.36 0 0 0-.2-2.4c-.2-.5-.5-.8-1-.8s-.9.3-1.1.8a14.36 14.36 0 0 0-.2 2.4z"/><path id="C" d="M99.2 94.4v.3c0 .4.1.8.3 1 .2.3.5.4 1 .4.4 0 .7-.1.9-.3s.3-.5.3-.9c0-.3-.1-.5-.3-.7s-.4-.3-.6-.4l-1.7-.6a2.84 2.84 0 0 1-1.5-1c-.3-.4-.5-1-.5-1.7 0-.4.1-.8.2-1.1.1-.4.3-.7.6-.9.3-.3.7-.5 1.1-.6.4-.2 1-.2 1.6-.2 1.1 0 2 .2 2.5.7s.8 1.2.8 2v.4h-2.2c0-.5-.1-.9-.2-1.1-.2-.2-.4-.3-.9-.3-.3 0-.6.1-.8.3s-.3.4-.3.8c0 .2.1.5.2.6.1.2.4.4.9.5l1.5.5c.8.3 1.3.6 1.6 1s.5 1 .5 1.7c0 .5-.1.9-.3 1.3s-.4.7-.7.9-.7.4-1.1.6c-.4.1-.9.2-1.4.2a7.18 7.18 0 0 1-1.7-.2c-.5-.1-.8-.3-1.1-.6s-.5-.6-.6-1-.2-.8-.2-1.3v-.3h2.1z"/></defs></symbol>
<symbol xmlns="http://www.w3.org/2000/svg" viewBox="0 0 154 30" id="myposter"><path fill="#00AFF0" d="M72.211 27.762c-.707.465-1.688.695-2.941.695-.383 0-.754-.012-1.125-.039a36.096 36.096 0 01-1.122-.094v-3.016c.344.031 1.782.145 2.141.128 1.168-.05 1.555-1.284 1.555-1.78 0-.41-.188-1.148-.289-1.406L65.758 9.734h3.894l3.024 9.133h.051l2.914-9.133h3.792l-5.575 15.703c-.394 1.083-.945 1.856-1.648 2.321v.004z"/><path fill="#1D1D1D" d="M91.344 14.473a4.93 4.93 0 00-.75-1.59 3.748 3.748 0 00-1.289-1.11c-.523-.273-1.141-.41-1.844-.41-.742 0-1.367.145-1.887.438a3.782 3.782 0 00-1.261 1.148 4.828 4.828 0 00-.712 1.613 7.79 7.79 0 00.015 3.728c.152.613.398 1.147.734 1.613.337.465.77.84 1.301 1.125.536.281 1.18.426 1.938.426.754 0 1.387-.148 1.895-.438.508-.293.918-.68 1.227-1.164.309-.48.535-1.031.672-1.652a8.779 8.779 0 00.207-1.906c0-.622-.082-1.228-.246-1.821zm-7.883-4.735v1.805h.051c.359-.738.93-1.277 1.703-1.613s1.625-.504 2.555-.504c1.031 0 1.93.191 2.695.57s1.402.891 1.91 1.535a6.734 6.734 0 011.148 2.231c.258.843.387 1.738.387 2.683s-.125 1.84-.375 2.684-.629 1.578-1.133 2.207a5.371 5.371 0 01-1.91 1.484c-.766.359-1.656.543-2.672.543-.328 0-.691-.035-1.094-.105a6.205 6.205 0 01-1.203-.336 4.464 4.464 0 01-1.121-.633 3.526 3.526 0 01-.891-.992h-.051v6.379h-2.195V9.738h2.196zM98.727 18.574c.215.629.512 1.152.891 1.574s.821.746 1.328.969a3.981 3.981 0 001.618.336c.565 0 1.101-.113 1.608-.336a3.863 3.863 0 001.328-.969c.379-.422.676-.945.891-1.574s.324-1.344.324-2.152c0-.809-.109-1.527-.324-2.156s-.512-1.157-.891-1.586a3.747 3.747 0 00-1.328-.981 3.906 3.906 0 00-1.608-.336c-.571 0-1.11.11-1.618.336a3.819 3.819 0 00-1.328.981c-.379.429-.676.957-.891 1.586s-.32 1.347-.32 2.156c-.001.808.105 1.523.32 2.152zm-2.231-4.902c.273-.852.688-1.59 1.238-2.219s1.23-1.121 2.039-1.484c.809-.36 1.738-.543 2.785-.543 1.066 0 2 .183 2.801.543a5.901 5.901 0 012.027 1.484 6.234 6.234 0 011.238 2.219c.273.851.41 1.765.41 2.75 0 .98-.137 1.89-.41 2.734a6.3 6.3 0 01-1.238 2.207c-.555.625-1.227 1.117-2.027 1.469s-1.734.527-2.801.527c-1.047 0-1.977-.176-2.785-.527s-1.488-.844-2.039-1.469a6.238 6.238 0 01-1.238-2.207 8.716 8.716 0 01-.414-2.734c0-.985.141-1.899.414-2.75zM149.047 9.738v2.813h.051c.531-1.086 1.188-1.887 1.961-2.403.773-.515 1.755-.753 2.941-.722l-.055 2.324c-.879 0-1.57.121-2.188.359-.621.243-1.121.594-1.5 1.059s-.652 1.027-.824 1.691c-.172.661-.258 1.422-.258 2.286v5.934h-2.191V9.738h2.063z"/><path fill="#00AFF0" d="M2.738 10.945L0 13.73v13.399L2.738 30h19.289l2.918-2.871H2.738V10.945zm30.332 8.106l2.739-2.785V2.871L33.07 0H13.777l-2.918 2.871H33.07v16.18zm-3.961 4.027H6.801V6.973h22.308v16.105zM64.105 23.078v-8.93c0-.859-.121-1.593-.363-2.207-.242-.609-.574-1.105-1.008-1.48a3.936 3.936 0 00-1.546-.828 7.106 7.106 0 00-1.961-.258c-.93 0-1.735.227-2.414.672-.68.445-1.215.965-1.61 1.547-.363-.824-.89-1.403-1.59-1.727-.695-.328-1.465-.492-2.308-.492-.875 0-1.657.191-2.336.57-.68.375-1.258.91-1.742 1.598h-.051V9.738h-3.457v13.34h3.664v-7.742c0-.652.094-1.18.285-1.586.187-.402.418-.715.684-.93.265-.215.543-.359.824-.437.285-.078.512-.117.683-.117.586 0 1.028.101 1.332.296.301.2.516.461.645.786.129.328.199.687.219 1.074.015.387.027.777.027 1.172v7.484h3.664v-7.433c0-.411.027-.821.09-1.227.059-.402.18-.762.359-1.082.184-.316.43-.574.75-.774.317-.199.735-.296 1.25-.296.516 0 .926.086 1.227.257.301.172.531.403.683.696.157.293.25.636.286 1.031.035.398.05.82.05 1.266v7.562h3.664z"/><path fill="#1D1D1D" d="M130.711 11.672V9.738h-2.66v-4h-2.191v4h-2.227l-.047 1.934h2.273v8.488c0 .621.063 1.121.18 1.496.121.383.305.672.555.879s.578.348.98.426.891.117 1.457.117h1.68V21.14h-1.008c-.344 0-.625-.012-.84-.039-.215-.023-.383-.078-.504-.168a.654.654 0 01-.242-.359 2.24 2.24 0 01-.066-.621v-8.285h2.656l.004.004zM121.977 17.582a3.294 3.294 0 00-.98-1.07 5.184 5.184 0 00-1.391-.684 16.877 16.877 0 00-1.613-.441c-.516-.121-1.035-.235-1.551-.348a8.492 8.492 0 01-1.391-.414c-.414-.164-.754-.367-1.02-.617a1.231 1.231 0 01-.402-.942c0-.343.09-.625.258-.839a1.86 1.86 0 01.672-.516c.277-.129.582-.219.918-.274.337-.05.664-.074.992-.074.359 0 .72.039 1.07.114.352.078.676.203.969.375.289.171.531.402.723.683.188.285.293.68.336 1.07l2.16-.285c-.07-.679-.227-1.265-.484-1.738a3.461 3.461 0 00-1.172-1.289 4.815 4.815 0 00-1.695-.672 10.484 10.484 0 00-2.086-.195c-.586 0-1.176.074-1.77.219a5.387 5.387 0 00-1.598.671 3.63 3.63 0 00-1.16 1.176c-.305.481-.453 1.059-.453 1.727 0 .863.215 1.531.645 2.015.43.481.969.856 1.613 1.122s1.344.473 2.102.621a26.83 26.83 0 012.105.488c.645.18 1.18.418 1.609.711.434.293.648.723.648 1.289 0 .414-.105.754-.313 1.02s-.469.469-.785.605c-.32.141-.668.234-1.047.285s-.738.074-1.082.074c-.449 0-.883-.043-1.305-.125a3.818 3.818 0 01-1.137-.426 2.34 2.34 0 01-.809-.801c-.203-.328-.293-.766-.336-1.199l-2.168.262c.055.699.219 1.309.488 1.813a3.907 3.907 0 001.238 1.395c.52.352 1.109.605 1.781.762.672.152 1.38.23 2.117.23.672 0 1.348-.066 2.027-.191a5.524 5.524 0 001.828-.684 3.943 3.943 0 001.32-1.293c.332-.531.5-1.203.5-2.012.004-.637-.121-1.168-.371-1.598zM134.887 13.676c.188-.453.445-.852.773-1.199.324-.34.719-.614 1.172-.809a3.807 3.807 0 011.535-.297c.551 0 1.051.098 1.508.297.457.195.852.461 1.188.797.335.336.601.734.796 1.199.199.465.313.953.352 1.469h-7.66c.035-.516.148-1 .336-1.457zm7.195 5.465c-.207.73-.574 1.285-1.098 1.664-.594.43-1.355.645-2.281.645-.723 0-1.352-.117-1.883-.359a3.664 3.664 0 01-1.316-.969c-.344-.402-.59-.867-.746-1.391s-.223-1.078-.207-1.664h9.953c.027-.645-.051-1.852-.195-2.55a7.466 7.466 0 00-.977-2.477 5.852 5.852 0 00-1.883-1.867c-.785-.492-1.766-.735-2.953-.735-.91 0-1.75.172-2.516.516a5.934 5.934 0 00-1.984 1.442 6.7 6.7 0 00-1.301 2.191c-.309.844-.465 1.773-.465 2.785.035 1.016.184 1.953.453 2.809.266.859.664 1.602 1.199 2.219a5.414 5.414 0 001.969 1.445c.781.343 1.707.516 2.773.516 1.512 0 2.766-.379 3.766-1.137.996-.754 1.641-1.879 1.934-3.375l-2.172.258-.07.031v.003z"/></symbol>
<symbol xmlns="http://www.w3.org/2000/svg" viewBox="0 0 312.3 105.7" fill="#1d1d1b" id="brainbirds"><path d="M88.1 88.3c0-1.9.2-3.6.7-5.2s1.2-2.9 2-4.1c.9-1.1 1.9-2 3-2.6s2.4-.9 3.7-.9c1 0 1.9.2 2.6.5s1.3.8 1.7 1.3c.4.6.8 1.2 1 2 .2.7.3 1.5.3 2.3 0 1.8-.2 3.5-.7 5.1s-1.1 2.9-2 4.1c-.8 1.2-1.8 2.1-2.9 2.7-1.1.7-2.3 1-3.6 1-1.1 0-2-.2-2.7-.5s-1.3-.8-1.8-1.4-.8-1.2-1-2-.3-1.6-.3-2.3zm2.9-.7c0 1.4.3 2.5.8 3.3s1.4 1.1 2.5 1.1c.8 0 1.5-.3 2.3-.9.7-.6 1.3-1.3 1.9-2.3.5-1 1-2.1 1.3-3.3a16 16 0 0 0 .5-3.9c0-1.2-.2-2.2-.7-2.9-.4-.7-1.3-1.1-2.6-1.1-.8 0-1.6.3-2.3.8s-1.4 1.3-1.9 2.2c-.6.9-1 2-1.3 3.2-.3 1.3-.5 2.5-.5 3.8zm17.8-11.8h1.9l-.2 3.1h.1c.3-.4.7-.9 1.1-1.3a7.55 7.55 0 0 1 1.4-1.1c.5-.3 1.1-.6 1.7-.8s1.3-.3 2-.3c.6 0 1.1.1 1.6.3s1 .5 1.3.9c.4.4.7 1 .9 1.7s.3 1.6.3 2.6c0 2.1-.3 4-.9 5.7s-1.3 3.1-2.3 4.2c-.9 1.2-2 2-3.2 2.7-1.2.6-2.3.9-3.5.9-.8 0-1.6-.1-2.2-.2-.6-.2-1.1-.3-1.3-.5l-1.6 7.5h-2.7l5.6-25.4zm7 1.9c-.7 0-1.3.2-1.9.5s-1.1.8-1.6 1.2c-.5.5-.9 1-1.3 1.6s-.7 1.1-.9 1.6l-1.8 8.6c.4.3.8.5 1.3.7.4.1.9.2 1.4.2.9 0 1.8-.3 2.7-.8s1.6-1.3 2.3-2.2c.7-1 1.2-2.1 1.6-3.5.4-1.3.6-2.9.6-4.5 0-1-.2-1.8-.6-2.4-.5-.7-1-1-1.8-1zM136 92.1c-.8.7-1.8 1.3-3 1.6a10.3 10.3 0 0 1-3.5.6c-1.9 0-3.4-.6-4.4-1.7s-1.5-2.7-1.5-4.6c0-2 .3-3.7.8-5.3.6-1.6 1.3-2.9 2.2-4s1.9-1.9 3.1-2.5c1.1-.6 2.3-.9 3.5-.9.9 0 1.6.1 2.3.4.6.2 1.2.6 1.6 1s.7.9.9 1.4a4.53 4.53 0 0 1 .3 1.6c0 1.7-.8 3.1-2.5 4-1.7 1-4.1 1.5-7.3 1.5h-.9c-.3 0-.6 0-1-.1-.1.5-.2.9-.2 1.3s-.1.8-.1 1.1c0 1.3.3 2.4.9 3.2s1.5 1.2 2.8 1.2c1.1 0 2-.2 2.9-.5s1.6-.7 2-1.1l1.1 1.8zm-3-14.4c-1.3 0-2.5.5-3.5 1.4s-1.7 2.3-2.2 4.1l2.9-.1c1 0 1.9-.2 2.7-.4s1.5-.5 2-1c.5-.4.8-1.1.8-1.9 0-.2 0-.5-.1-.7-.1-.3-.2-.5-.4-.7s-.5-.4-.8-.5-.9-.2-1.4-.2zm17.7 16.2l2.4-11.4.3-1.3c.1-.4.1-.8.1-1.1 0-.7-.2-1.3-.5-1.7s-.9-.7-1.8-.7c-.6 0-1.2.1-1.8.4s-1.2.7-1.7 1.1a6.73 6.73 0 0 0-1.4 1.5 15.26 15.26 0 0 0-1.1 1.6l-2.4 11.6H140l3.8-18.1h1.9l-.1 3.1h.1c.3-.4.7-.8 1.1-1.2s.9-.8 1.5-1.1c.5-.3 1.2-.6 1.8-.9.7-.2 1.4-.3 2.2-.3 1.2 0 2.2.3 2.9.9s1 1.6 1 3c0 .7-.1 1.6-.3 2.6l-2.6 12h-2.6zm12.7-18.1h2.7l-3.8 18.1h-2.7l3.8-18.1zm.6-5.5c0-.6.2-1 .6-1.4s.8-.6 1.4-.6 1 .2 1.4.6.6.9.6 1.4c0 .6-.2 1-.6 1.4s-.9.6-1.4.6c-.6 0-1-.2-1.4-.6s-.6-.9-.6-1.4zm14.9 23.6l2.4-11.4.3-1.3c.1-.4.1-.8.1-1.1 0-.7-.2-1.3-.5-1.7s-.9-.7-1.8-.7c-.6 0-1.2.1-1.8.4s-1.2.7-1.7 1.1a6.73 6.73 0 0 0-1.4 1.5 15.26 15.26 0 0 0-1.1 1.6L171 93.9h-2.7l3.8-18.1h1.9l-.1 3.1h.1c.3-.4.7-.8 1.1-1.2s.9-.8 1.5-1.1c.5-.3 1.2-.6 1.8-.9.7-.2 1.4-.3 2.2-.3 1.2 0 2.2.3 2.9.9s1 1.6 1 3c0 .7-.1 1.6-.3 2.6l-2.6 12h-2.7zm20.8.8c-.5 2.4-1.4 4.1-2.6 5.2s-2.9 1.6-4.9 1.6c-1.6 0-2.9-.2-3.9-.6l-2.3-1 1.2-2c.2.1.4.2.7.4s.6.3 1 .5l1.4.4c.6.1 1.2.1 2 .1 1.2 0 2.2-.4 3-1.3s1.4-2.2 1.8-4.1l.6-3h-.1c-.3.5-.7.9-1.1 1.3s-.8.8-1.3 1.1-1 .6-1.6.8-1.2.3-1.9.3c-1.3 0-2.4-.5-3.1-1.4-.8-.9-1.2-2.3-1.2-4 0-1.6.2-3.2.7-4.8.4-1.6 1.1-3 2-4.3s2-2.3 3.2-3.1c1.3-.8 2.8-1.2 4.5-1.2 1.3 0 2.4.1 3.3.3s1.7.5 2.3.8l-3.7 18zm-6.8-2.7c.6 0 1.2-.2 1.8-.5s1.1-.7 1.6-1.2.9-1 1.3-1.6l1-1.6 1.8-8.7c-.4-.2-.9-.4-1.4-.4-.6-.1-1.1-.1-1.7-.1-1 0-1.9.3-2.7.9s-1.6 1.4-2.2 2.3c-.6 1-1.1 2.1-1.5 3.4s-.5 2.6-.5 4c0 1.1.2 2 .7 2.6s1.1.9 1.8.9zm31.9 1.9l2.2-10.2c.2-.8.3-1.6.4-2.2.1-.7.1-1.2.1-1.7 0-.7-.1-1.2-.4-1.5-.2-.3-.7-.5-1.2-.5-.6 0-1.2.2-1.8.5s-1.1.7-1.6 1.2l-1.4 1.5c-.4.5-.8 1-1 1.4L217.7 94H215l3.8-18.1h1.9l-.2 3.1h.1l1.2-1.2c.4-.4.9-.8 1.5-1.1.5-.3 1.1-.6 1.8-.9.6-.2 1.3-.3 2.1-.3 1.1 0 1.8.3 2.2 1s.6 1.6.6 2.8c.4-.5.8-.9 1.3-1.4s1-.9 1.6-1.2c.6-.4 1.2-.7 1.8-.9a6.28 6.28 0 0 1 1.9-.3c1.1 0 2 .3 2.6.8s.9 1.5.9 2.9c0 1-.2 2.4-.5 4l-2.3 10.9h-2.7l2.3-10.9c.1-.7.3-1.3.3-1.9s.1-1 .1-1.4c0-.7-.1-1.1-.4-1.5-.3-.3-.7-.5-1.3-.5-.5 0-1 .2-1.6.5s-1.1.7-1.6 1.2-1 1-1.4 1.6-.8 1.1-1 1.6l-2.4 11.4h-2.8zm22.4-18.1h2.7L246 93.9h-2.7l3.9-18.1zm.5-5.5c0-.6.2-1 .6-1.4s.8-.6 1.4-.6 1 .2 1.4.6.6.9.6 1.4c0 .6-.2 1-.6 1.4s-.9.6-1.4.6c-.6 0-1-.2-1.4-.6s-.6-.9-.6-1.4zm15 23.6l2.4-11.4.3-1.3c.1-.4.1-.8.1-1.1 0-.7-.2-1.3-.5-1.7s-.9-.7-1.8-.7c-.6 0-1.2.1-1.8.4s-1.2.7-1.7 1.1a6.73 6.73 0 0 0-1.4 1.5 15.26 15.26 0 0 0-1.1 1.6l-2.4 11.6H252l3.8-18.1h1.9l-.1 3.1h.1c.3-.4.7-.8 1.1-1.2s.9-.8 1.5-1.1c.5-.3 1.2-.6 1.8-.9.7-.2 1.4-.3 2.2-.3 1.2 0 2.2.3 2.9.9s1 1.6 1 3c0 .7-.1 1.6-.3 2.6l-2.6 12h-2.6zm22.1-6.2c-.2.9-.3 1.8-.4 2.6s-.1 1.6-.1 2.3v.7c0 .2 0 .4.1.7h-1.8l-.5-3.1h-.1c-.3.4-.7.8-1.1 1.2a7.55 7.55 0 0 1-1.4 1.1c-.5.3-1.1.6-1.7.8s-1.2.3-1.8.3c-1.3 0-2.4-.5-3.2-1.5s-1.2-2.5-1.2-4.6c0-1.4.2-2.9.6-4.4s1-2.9 1.8-4.1a10.71 10.71 0 0 1 3-3c1.2-.8 2.6-1.2 4.1-1.2h1.1c.3 0 .6.1.9.1s.5.1.8.2c.2.1.5.2.8.3l1.6-7.5h2.7l-4.2 19.1zm-8 4.3c.5 0 1-.1 1.6-.4l1.5-1c.5-.4.9-.9 1.3-1.3.4-.5.7-.9.9-1.3l2-9.4c-.4-.3-.9-.5-1.4-.6s-1.2-.2-2-.2c-1 0-1.8.3-2.6.9s-1.4 1.4-2 2.4c-.5 1-1 2.1-1.2 3.4-.3 1.3-.4 2.6-.4 3.9 0 1 .2 1.8.6 2.6.2.7.8 1 1.7 1zm20.6-3.2c0-.6-.2-1.2-.5-1.6s-.7-.8-1.2-1.2-1-.7-1.6-1-1.1-.7-1.6-1.1-.9-.9-1.2-1.5a4.65 4.65 0 0 1-.5-2.1c0-.7.2-1.3.5-1.9s.8-1.1 1.3-1.6c.6-.4 1.2-.8 2-1 .8-.3 1.6-.4 2.6-.4 1.3 0 2.3.1 3 .3s1.3.4 1.9.7l-.9 2.2c-1-.6-2.3-.8-3.9-.8-1 0-1.9.2-2.5.6-.7.4-1 1.1-1 1.9 0 .5.2.9.5 1.3s.7.7 1.2 1.1c.5.3 1 .7 1.6 1s1.1.7 1.6 1.2c.5.4.9 1 1.2 1.6a4.65 4.65 0 0 1 .5 2.1c0 1.9-.6 3.3-1.9 4.3s-3 1.5-5.1 1.5c-1.1 0-2.1-.1-3-.3s-1.6-.5-2.2-.8l1-2.3a6.78 6.78 0 0 0 1.9.8c.8.2 1.6.3 2.4.3 1.2 0 2.1-.3 2.8-.8.7-.6 1.1-1.4 1.1-2.5zM4.7 5.2h9.4v17.4h.3c1-1.2 2.3-2.1 3.9-2.7 1.6-.7 3.4-1 5.3-1 4.3 0 7.7 1.5 9.9 4.4 2.3 3 3.4 7.5 3.4 13.6 0 6.5-1.6 11.5-4.8 14.8-3.2 3.4-7.6 5.1-13.2 5.1-3.1 0-5.9-.3-8.5-.8s-4.5-1.1-5.8-1.7V5.2zm16.1 21.5c-1.7 0-3.1.4-4.2 1.3s-1.9 2.2-2.5 3.9v15.8c.8.4 1.6.7 2.5.8s1.8.2 2.9.2c2.6 0 4.5-.9 5.8-2.8s2-4.8 2-8.9c-.1-6.8-2.2-10.3-6.5-10.3zm44 1.4c-1.5-.5-4.3-1.3-5.5-1.3-1.7 0-2.9.7-4 1.6s-2.1 2.7-2.5 4.1v23.4h-9.4V19.6h7.3l1.1 4.1h.3c.8-1.8 1.8-2.9 3.2-3.9s3.1-1 5-1c1.3 0 3.9.9 5.5 1.5l-1 7.8zm5.3-7.5c2.7-.5 10.1-1.7 13-1.7 2.5 0 4.6.3 6.3.9s3 1.5 4 2.6 1.7 2.4 2.1 4c.4 1.5.6 3.3.6 5.2 0 2.1-.1 4.3-.2 6.4l-.3 6.3c0 2.1 0 4.1.2 6 .1 2 .5 3.8 1.1 5.5h-7.7l-1.5-5h-.4c-1 1.5-2.3 2.8-4 3.9s-3.9 1.6-6.6 1.6c-1.7 0-3.2-.3-4.6-.8a9.07 9.07 0 0 1-3.5-2.2c-1-.9-1.7-2-2.2-3.3s-.8-2.7-.8-4.3c0-2.2.5-4.1 1.5-5.6s2.4-2.7 4.3-3.7c1.9-.9 4.1-1.6 6.7-2s5.5-.5 8.6-.3c.3-2.7.1-4.6-.6-5.8s-2.3-1.8-4.8-1.8c-1.9 0-8.6 1.1-10.7 1.5l-.5-7.4zm9.8 28c1.9 0 3.4-.4 4.5-1.3 1.1-.8 1.9-1.7 2.5-2.7V40c-1.5-.1-2.9-.2-4.3-.1s-2.6.3-3.7.7c-1.1.3-1.9.8-2.5 1.4s-.9 1.4-.9 2.4c0 1.4.4 2.4 1.2 3.1.7.8 1.8 1.1 3.2 1.1zm23.6-39.2c0-1.4.5-2.6 1.6-3.6 1-1 2.5-1.5 4.3-1.5s3.3.5 4.4 1.5 1.7 2.2 1.7 3.6-.6 2.6-1.7 3.5-2.6 1.4-4.4 1.4c-2.3 0-4-.7-5-2.2-.6-.8-.9-1.7-.9-2.7zm1.4 10.2h9.4v36.2h-9.4V19.6zm40.7 36.2V35.2c0-2.9-.4-5.1-1.3-6.4-.8-1.3-2.3-2-4.3-2-1.8 0-3.3.5-4.5 1.6a8.17 8.17 0 0 0-2.6 3.9v23.4h-9.4V19.6h7.5l1.1 4.8h.3c1.1-1.5 2.6-2.9 4.4-4.1s4.2-1.7 7.1-1.7c1.8 0 3.4.2 4.8.7s2.6 1.3 3.5 2.4c1 1.1 1.7 2.6 2.2 4.5s.7 4.3.7 7.1v22.5h-9.5zm19.7-50.6h5.8v18h.3c1.1-1.4 2.5-2.5 4.2-3.3s3.6-1.2 5.6-1.2c4.7 0 8.2 1.5 10.5 4.5s3.5 7.6 3.5 13.9-1.5 11.1-4.6 14.4-7.4 4.9-13 4.9c-2.7 0-5.1-.3-7.3-.9s-3.8-1.2-5-1.9V5.2zm14.9 18.6c-2.4 0-4.4.7-5.9 2-1.5 1.4-2.6 3.3-3.3 5.7v18.2c.9.5 2 .9 3.3 1.2s2.7.4 4.1.4c3.3 0 5.9-1.2 7.8-3.5 2-2.3 2.9-5.9 2.9-10.9 0-1.9-.2-3.6-.5-5.3-.3-1.6-.9-3-1.6-4.2s-1.7-2.1-2.8-2.7c-.9-.5-2.3-.9-4-.9zm21.3-15.2c0-1.1.4-2.1 1.1-2.9s1.7-1.2 2.9-1.2 2.1.4 3 1.2c.8.8 1.2 1.7 1.2 2.9 0 1.1-.4 2-1.2 2.7s-1.8 1.1-3 1.1a4.17 4.17 0 0 1-2.9-1.1c-.8-.7-1.1-1.6-1.1-2.7zm1.2 11h5.8v36.2h-5.8V19.6zm33.8 5.6a12.19 12.19 0 0 0-4.1-.7c-2.1 0-3.7.6-4.9 1.7a6.9 6.9 0 0 0-2.2 4.3v25.3h-5.8V19.6h4.1l1.1 4.4h.3c.9-1.6 2-2.9 3.3-3.8s2.9-1.3 4.9-1.3c1.4 0 3 .2 4.7.7l-1.4 5.6zm35.3 18.2l.1 6.7c0 2 .3 4 .7 5.9h-3.9l-1.4-5.1h-.3c-1 1.7-2.4 3.1-4.2 4.2s-4 1.7-6.4 1.7c-4.8 0-8.4-1.5-10.7-4.6-2.3-3-3.5-7.8-3.5-14.3 0-6.2 1.5-10.9 4.4-14.1s6.9-4.8 12-4.8c1.8 0 3.2.1 4.2.3s2.2.5 3.4.9v-15h5.8v38.2zm-14.6 8.2c2.5 0 4.4-.6 5.9-1.9 1.4-1.3 2.4-3.2 3-5.8v-18c-.9-.7-1.9-1.2-3-1.4-1.1-.3-2.6-.4-4.4-.4-3.3 0-5.9 1.1-7.8 3.3-1.9 2.1-2.9 5.6-2.9 10.5 0 2 .2 3.8.5 5.5s.8 3.1 1.6 4.3a8.06 8.06 0 0 0 2.9 2.9c1.1.7 2.5 1 4.2 1zm41.7-5.6c0-1.4-.4-2.6-1.3-3.4s-1.9-1.5-3.2-2.1-2.7-1.1-4.2-1.6-2.9-1.2-4.2-2-2.4-1.8-3.2-3.1c-.9-1.3-1.3-2.9-1.3-5.1 0-3.5 1-6 3-7.6s4.7-2.4 8.2-2.4c2.6 0 4.8.2 6.5.7 1.8.5 3.3 1 4.6 1.6l-1.4 4.8c-1.1-.5-2.4-1-4-1.4s-3.2-.6-5-.6c-2.1 0-3.7.4-4.7 1.1s-1.5 2-1.5 3.8c0 1.3.4 2.2 1.3 2.9s1.9 1.3 3.2 1.9 2.7 1.1 4.2 1.6a16.52 16.52 0 0 1 4.2 2.1c1.3.9 2.4 2 3.2 3.3.9 1.3 1.3 3.1 1.3 5.2a12.17 12.17 0 0 1-.8 4.3c-.5 1.4-1.3 2.5-2.4 3.5s-2.4 1.7-3.9 2.3c-1.6.6-3.4.8-5.5.8-2.7 0-5.1-.3-7-.8s-3.5-1.2-4.8-1.9l1.7-4.9c1.1.6 2.6 1.2 4.3 1.7 1.8.5 3.6.8 5.4.8 2.1 0 3.8-.4 5.1-1.2 1.5-.8 2.2-2.2 2.2-4.3z"/></symbol>
</defs>
</svg>
