<svg xmlns="http://www.w3.org/2000/svg" fill-rule="evenodd" clip-rule="evenodd" image-rendering="optimizeQuality" shape-rendering="geometricPrecision" text-rendering="geometricPrecision" viewBox="0 0 364 364"><path fill="#404080" d="M171.5 1.5q120.825-.285 174.5 107 40.058 101.558-26 188-62.802 69.778-153 65-103.695-13.185-150-107-38.853-97.666 22-183 51.182-63.22 132.5-70" opacity=".016"/><path fill="#2c3e50" d="M277.5 330.5q-66.441 39.822-142 21.5-26.417-7.713-50-21.5-62.562-40.525-78.5-114Q-10.196 104.034 79.5 35q71.783-47.88 155-24Q335.955 46.954 357 152.5q12.918 96.259-57.5 162.5a136 136 0 0 1-22 15.5" opacity=".999"/><path fill="#3e4751" d="M129.5 120.5q2.178 1.203 5 1.5-4.3 1.201-8-.5v-3a4.93 4.93 0 0 1 3 .5q-1.857 1.035 0 1.5" opacity=".997"/><path fill="#a2a2a2" d="M134.5 119.5q1 0 1 1a24.6 24.6 0 0 0 5 5h-2q-5.894-2.201-12-1-1.687-1.728 0-3 3.7 1.701 8 .5-2.822-.297-5-1.5 2.872.426 5-1"/><path fill="#e4e4e4" d="M135.5 120.5a215 215 0 0 0 18 7.5 23.7 23.7 0 0 1-9-1.5q-1.602-1.401-4-1a24.6 24.6 0 0 1-5-5"/><path fill="#414a54" d="M138.5 125.5q-1.352 3.386-5 4.5l2 1q-.343.598-1 .5-4.89-.78-10 0-3.074-.309-1-2.5a191 191 0 0 0 11-2 42.8 42.8 0 0 1-9-1.5q.186-.91 1-1 6.106-1.201 12 1" opacity=".998"/><path fill="#777" d="M140.5 125.5q2.398-.401 4 1-5.934.83 0 2.5l-6 1.5a16.3 16.3 0 0 0 2-5"/><path fill="#d7d7d7" d="M134.5 119.5q-2.128 1.426-5 1-1.857-.465 0-1.5a4.93 4.93 0 0 0-3-.5v3q-1.687 1.272 0 3-.814.09-1 1a42.8 42.8 0 0 0 9 1.5 191 191 0 0 1-11 2q-2.074 2.191 1 2.5v1q-2.83.847-5 3 4.368.852 9 0a4.93 4.93 0 0 1 3 .5q-2.822.297-5 1.5-5.247-.818-9 2.5a31.6 31.6 0 0 0 8-.5q5.163.702 8-3.5-.834-.575-1-1.5h1q1.356-1.064 1-3 .657.098 1-.5l-2-1q3.648-1.114 5-4.5h2a16.3 16.3 0 0 1-2 5q-1.73 1.22 0 3-4.75 3.716-7 9.5.686.621 1 1.5a318 318 0 0 0-12 21q-1.186-2.714 0-6 1.314.197 2-1a45.7 45.7 0 0 0 3-7.5q-6.971-1.506-13 2a7.3 7.3 0 0 0 3 2l-4 1q-1.386 1.275 0 3-.504 1.545-2 1.5-1.356 1.064-1 3-2.087 3.69-3.5 8-1.492.85-2.5 2l-1 2q-1.314-.197-2 1 5.99 1.67 12 0 2.993 4.394 3 10a203.6 203.6 0 0 0-29-13.5q-1.81-1.527 1-1.5 6.127 2.669 13 2a440 440 0 0 0 5.5-8q.148-4.795 2.5-9.5a950 950 0 0 1 17-33.5 57 57 0 0 0-2.5-7q-13.002-7.437.5-2.5a103 103 0 0 1 12 6.5"/><path fill="#394451" d="M124.5 144.5h4q-6.112 2.576-13 1.5 4.167-2.088 9-1.5" opacity=".998"/><path fill="gray" d="M128.5 144.5h-4a44 44 0 0 1 3-2l-.5-1q-5.136 2.383-10.5 1a105 105 0 0 1 10-2q3.578 1.143 2 4"/><path fill="#3b444f" d="M126.5 137.5a8.4 8.4 0 0 1 4 .5q-2.823.297-5 1.5a31.6 31.6 0 0 1-8 .5q3.753-3.318 9-2.5" opacity=".998"/><path fill="#9d9d9d" d="M128.5 135.5q1.602-1.401 4-1 .166.925 1 1.5-2.837 4.202-8 3.5 2.177-1.203 5-1.5a8.4 8.4 0 0 0-4-.5q2.178-1.203 5-1.5a4.93 4.93 0 0 0-3-.5"/><path fill="#3b4652" d="M124.5 132.5q4.84.264 9 2h-1q-2.398-.401-4 1-4.632.852-9 0 2.17-2.153 5-3" opacity=".998"/><path fill="#7b7b7b" d="M134.5 131.5q.356 1.936-1 3-4.16-1.736-9-2v-1q5.11-.78 10 0"/><path fill="#46484b" d="M120.5 147.5q9.444-.088.5 2-2.525-.275-.5-2"/><path fill="#3b4551" d="M120.5 159.5a301 301 0 0 1-10.5 3 2.43 2.43 0 0 1-.5-2q1.496.045 2-1.5-1.386-1.725 0-3l4-1a7.3 7.3 0 0 1-3-2q6.029-3.506 13-2a45.7 45.7 0 0 1-3 7.5q-.686 1.197-2 1" opacity=".998"/><path fill="#a5a5a5" d="M215.5 157.5q-2.405.282-4-1.5 2.779-1.16 4 1.5"/><path fill="#999" d="M120.5 159.5q-1.186 3.286 0 6 .356 1.936-1 3 .257-1.487-1-2-3.576-5.769-10-3-.356-1.936 1-3a2.43 2.43 0 0 0 .5 2 301 301 0 0 0 10.5-3"/><path fill="#e9e9ea" d="M215.5 157.5a358 358 0 0 0 16.5 6 1445 1445 0 0 1 39 18q.864 2.816-.5 5.5a538 538 0 0 0-10 19.5q-1.362-1.935.5-4 2.29-13.303-4-25a11.53 11.53 0 0 0-4.5-3.5l-13.5-4.5a6.3 6.3 0 0 0-3 1q-.85 3.335-2.5 6l-3-2q-21.839 1.942 0 2v1q-6.256 3.29-13 1 .305 2.835-2 4.5 1.278 2.592 3 .5 4.221.67 9 .5a47 47 0 0 1-7 2.5 21.4 21.4 0 0 0-7 1q-1.257-.513-1-2a246 246 0 0 0 8.5-16q1.227-4.09-.5-8-3.428-.95-5-4"/><path fill="#404851" d="M118.5 166.5q-3.62 3.728-5 9-.686 1.197-2 1-6.01 1.67-12 0 .686-1.197 2-1 5.519.206 10.5-2 1.032-1.247-.5-2a54.3 54.3 0 0 1-9 2q1.008-1.15 2.5-2 1.413-4.31 3.5-8 6.424-2.769 10 3" opacity=".997"/><path fill="#757575" d="M226.5 171.5q13.851.06 0 2l-4-.5q2.337-.315 4-1.5"/><path fill="#9f9f9f" d="m101.5 175.5 1-2a54.3 54.3 0 0 0 9-2q1.532.753.5 2-4.981 2.206-10.5 2"/><path fill="#e2e2e2" d="M118.5 166.5q1.257.513 1 2-10.012 13.956 5 22a39.1 39.1 0 0 1-10-4q-.007-5.606-3-10 1.314.197 2-1 1.38-5.272 5-9"/><path fill="#787878" d="M230.5 174.5v2q-21.839-.058 0-2"/><path fill="#3c4652" d="M106.5 178.5a9.86 9.86 0 0 1 6 1l-3 1q-2.295-.21-3-2" opacity=".997"/><path fill="#464e57" d="M230.5 177.5q1.538.595.5 2a11.3 11.3 0 0 1-3.5 1.5l2 1q-5.537.63-11 1.5-1.722 2.092-3-.5 2.305-1.665 2-4.5 6.744 2.29 13-1" opacity=".999"/><path fill="#909090" d="M263.5 189.5q1.63.18 2 2l-1 2q-1.393-1.783-1-4"/><path fill="#d1d1d1" d="M124.5 190.5q24.831 5.616 37.5-17a4243 4243 0 0 0-8 24q-1.758 4.805-6.5 4.5z"/><path fill="#454c54" d="M151.5 193.5q.435 2.283 0 4.5-5.007 2.926-9-1.5 1.237-1.329 3-1 3.305.86 6-2" opacity=".997"/><path fill="#7a7a7a" d="M151.5 193.5q-2.695 2.86-6 2-3.593-1.971-7.5 0l-1.5-1.5a77.5 77.5 0 0 0 12-2.5q2.307-.07 3 2"/><path fill="#4c5158" d="M151.5 187.5a4.93 4.93 0 0 1 3 .5 6.98 6.98 0 0 0-2.5 3.5q-2.001-2.067-.5-4" opacity=".996"/><path fill="#898b8c" d="M239.5 210.5q0 1-1 1-1.083 1.577-3 2-1 0-1-1 3.47-1.018 1-4 2.545-1.296 3.5-4 1.174 2.9-1.5 4.5.816 1.076 2 1.5"/><path fill="#dfdfdf" d="m230.5 174.5 3 2q-1.37 2.379 0 4.5-4.795 3.811-4 9.5-4.28 2.287-3 6.5 16.553 9.108 21.5-9.5 1.597-2.844 2.5-.5-7.297 11.005-11 23.5-1.184-.424-2-1.5 2.674-1.6 1.5-4.5-.955 2.704-3.5 4 2.47 2.982-1 4 .27-10.735-10-14a992 992 0 0 0-11.5 24 38 38 0 0 1-5.5 5.5q15.351 8.589 33 8.5 1.953 1.96 4 0 1.391 2.752 3.5 1 .724 1.422.5 3l-4 8q-30.454-14.226-61-28.5 4.208-.663 8 1.5a20.6 20.6 0 0 0 6-2 223 223 0 0 0 11-24.5q-3.693-2.775 1.5-3.5a219 219 0 0 1 2.5-6q-.257 1.487 1 2-.045 1.496 1.5 2 4.8-1.06 9.5-2.5a8.4 8.4 0 0 0-4-.5 47 47 0 0 0 7-2.5q-4.779.17-9-.5 5.463-.87 11-1.5l-2-1a11.3 11.3 0 0 0 3.5-1.5q1.038-1.405-.5-2v-3"/><path fill="#9b9b9b" d="M205.5 207.5q2.647 1.442 6 1-3.29 1.945-7 0 .186-.91 1-1"/><path fill="#4d5055" d="M211.5 208.5q-3.353.442-6-1a103 103 0 0 1 10-1.5q2-1 0-2 5.657-3.241 2 1.5 1.032 3.327-3 4.5 1.17 1.61-.5 3.5a4.46 4.46 0 0 0-1.5-2q-15.798 1.91 0-2-.186-.91-1-1"/><path fill="#4c525a" d="M208.5 202.5q2.688 1.214 6 1.5a16.24 16.24 0 0 1-8 0q.816-1.076 2-1.5" opacity=".996"/><path fill="#5b5e60" d="M208.5 202.5q1.095-2.317 4-2.5a16.24 16.24 0 0 1 8 0 98 98 0 0 1-12 2.5"/><path fill="#686868" d="M210.5 196.5q5.025-.247 10 .5-5.396 1.915-11 1 .834-.575 1-1.5"/><path fill="#464849" d="M218.5 192.5q2.405-.282 4 1.5a30.5 30.5 0 0 1-11 0q3.804-.279 7-1.5"/><path fill="#888" d="M219.5 189.5a9.86 9.86 0 0 1 6 1q-3.397 1.72-7 .5.834-.575 1-1.5"/><path fill="#797a7b" d="M220.5 186.5a8.4 8.4 0 0 1 4 .5q-4.7 1.44-9.5 2.5-1.545-.504-1.5-2a21.4 21.4 0 0 1 7-1"/><path fill="#434b55" d="M202.5 214.5q21.645.661-.5 3l-1.5-1a31 31 0 0 0 2-2" opacity=".997"/><path fill="#4a525b" d="M209.5 219.5q3.074.309 1 2.5a58 58 0 0 0-13.5 2.5l-1.5-1.5a375 375 0 0 1 14-3.5" opacity=".997"/><path fill="#d6d6d6" d="M238.5 211.5a25.7 25.7 0 0 1-4 11l-1-1a18.1 18.1 0 0 0 2-8q1.917-.423 3-2"/><path fill="#4c5157" d="M199.5 224.5a32.5 32.5 0 0 1 8 .5l-6 1.5q-1.82-.37-2-2" opacity=".998"/><path fill="#e8e8e8" d="M250.5 233.5a5.73 5.73 0 0 1-1 3 4.93 4.93 0 0 1-3-.5q1.456-2.222 4-2.5"/><path fill="#a9aaab" d="M250.5 233.5q-2.544.278-4 2.5a4.93 4.93 0 0 0 3 .5q.401 2.398-1 4a4.93 4.93 0 0 0-.5-3q-2.109 1.752-3.5-1-2.047 1.96-4 0a68 68 0 0 0 10.5-8l6.5-11 1 1a161 161 0 0 0-8 15"/><path fill="#40464c" d="M224.5 237.5q3.249-1.693 6 1.5-3.009-.225-6-1.5"/><path fill="#585b5e" d="M231.5 240.5q1.813-1.923 4 0-1.8 1.188-4 0"/><path fill="#959595" d="M240.5 240.5a8.4 8.4 0 0 1 4 .5q1.982 2.317-1 3.5-1.794-.519 0-1.5l-7-1q2.337-.315 4-1.5"/><path fill="#3f4054" d="M85.5 330.5q23.583 13.787 50 21.5 75.559 18.322 142-21.5-43.15 28.738-95.5 29-52.882-.02-96.5-29" opacity=".047"/></svg>
