<svg xmlns="http://www.w3.org/2000/svg" xmlns:xlink="http://www.w3.org/1999/xlink">
<defs>
<symbol id="agile" viewBox="100 70 150 110"><style><![CDATA[.A{fill:#404040;fill-rule:evenodd}]]></style><path class="A" d="M220 87.1a2.05 2.05 0 0 0 0-3 2.08 2.08 0 0 0-1.44-.68 2.17 2.17 0 0 0-1.61.68 2.25 2.25 0 0 0 0 3 2.11 2.11 0 0 0 1.61.59 2 2 0 0 0 1.44-.59zm9.94 1.44a1.67 1.67 0 0 0-1.18-.51 1.73 1.73 0 0 0-1.76 1.78 2 2 0 0 0 .51 1.27 1.66 1.66 0 0 0 1.27.42 1.58 1.58 0 0 0 1.18-.42 2 2 0 0 0 .51-1.27 1.72 1.72 0 0 0-.51-1.27zM181.8 145a4.92 4.92 0 0 0-3.64-1.52 5.2 5.2 0 0 0-5.07 5.08 4.92 4.92 0 0 0 1.52 3.64 4.87 4.87 0 0 0 3.55 1.52 4.92 4.92 0 0 0 3.64-1.52 5 5 0 0 0 0-7.19zM167 156.38a3.66 3.66 0 0 0-2.88 1.27 3.13 3.13 0 0 0-1.18 2.71 3.44 3.44 0 0 0 1.18 2.88 3.89 3.89 0 0 0 2.88 1.18 4.18 4.18 0 0 0 2.88-1.18 4 4 0 0 0 1.1-2.88 3.57 3.57 0 0 0-1.1-2.71 3.92 3.92 0 0 0-2.88-1.27zm-40.5 2.54a1.8 1.8 0 0 0-.59 1.27 1.78 1.78 0 0 0 .59 1.18 1.54 1.54 0 0 0 1.18.51 1.86 1.86 0 0 0 1.27-.51 1.67 1.67 0 0 0 .51-1.18 1.72 1.72 0 0 0-.51-1.27 1.87 1.87 0 0 0-1.27-.51 1.54 1.54 0 0 0-1.18.51zm13.02 3.8a2.06 2.06 0 0 0-1.69-.68 2 2 0 0 0-1.61.68 2.31 2.31 0 0 0-.68 1.61 2.51 2.51 0 0 0 .68 1.69 2.23 2.23 0 0 0 1.61.59 2.31 2.31 0 0 0 1.69-.59 2.1 2.1 0 0 0 .59-1.69 1.93 1.93 0 0 0-.59-1.61zm10.58 4.9a2.56 2.56 0 0 0 3.81 0 2.32 2.32 0 0 0 .76-1.86 2.38 2.38 0 0 0-.76-1.95 2.62 2.62 0 0 0-1.86-.76 2.61 2.61 0 0 0-2.71 2.71 2.62 2.62 0 0 0 .76 1.86zm56.15-85.33a2.49 2.49 0 0 0-1.86-.76 2.68 2.68 0 0 0-1.95.76 2.62 2.62 0 0 0-.76 1.86 2.61 2.61 0 0 0 2.71 2.71 2.49 2.49 0 0 0 1.86-.76 2.75 2.75 0 0 0 .85-1.95 2.72 2.72 0 0 0-.85-1.86zm-13.95 4.4a4.08 4.08 0 0 0-5.75 0 4 4 0 0 0-1.18 2.88 3.84 3.84 0 0 0 1.18 2.79 4.08 4.08 0 0 0 5.75 0 3.84 3.84 0 0 0 1.18-2.79 4 4 0 0 0-1.18-2.88zm-10.5 11.08a4.92 4.92 0 0 0-3.64-1.52 5.05 5.05 0 0 0-5.07 5.16 5.13 5.13 0 0 0 1.44 3.55 5.2 5.2 0 0 0 3.64 1.52 5.36 5.36 0 0 0 5.16-5.08 4.92 4.92 0 0 0-1.52-3.64zm12.7 4.84l-5.92 2.7v25.46c-.08 5 3.72 7.53 11.5 7.53v-4a6.34 6.34 0 0 1-4-1.1 3.78 3.78 0 0 1-1.58-3.19v-27.4zm22.07 9.8a17.37 17.37 0 0 0-10.66 3.3 11.61 11.61 0 0 0-5.08 9.9 11.23 11.23 0 0 0 4.91 9.47 18 18 0 0 0 10.74 3.21 33.6 33.6 0 0 0 8-.93 28.4 28.4 0 0 0 6.6-2.88l-2.45-3.2c-4.74 2.54-7.53 3.2-11 3.2a11.69 11.69 0 0 1-7.19-2 7.58 7.58 0 0 1-3.3-6.68h24.1a9.53 9.53 0 0 0 .42-2.71 9.06 9.06 0 0 0-3.89-7.7c-2.7-1.95-6.43-3-11.16-3zm-6.43 5.6a11.13 11.13 0 0 1 6.68-1.86 10.64 10.64 0 0 1 6.68 1.95 5.49 5.49 0 0 1 2.28 4.48h-18.5a6.8 6.8 0 0 1 2.88-4.57zm-95.57-3.15l2.54 3.72c1.95-1.52 4.82-2.28 8.54-2.28 4.82 0 7.2 2 7.2 6.1a16.33 16.33 0 0 0-4.23-.59c-4.57 0-8.37.85-11.25 2.62s-4.48 3.9-4.48 6.43a6.38 6.38 0 0 0 2.88 5.33 10.76 10.76 0 0 0 6.77 2.11c4.9 0 8.54-1.18 10.9-3.38a4.82 4.82 0 0 0 2.62 2.54 12.65 12.65 0 0 0 5.41.85V136a4.24 4.24 0 0 1-2.62-4.31v-9c0-3.64-1.1-6.26-3.3-8s-5.75-2.37-10.57-2.37a22.25 22.25 0 0 0-5.67.76 16 16 0 0 0-4.74 1.69zm14.38 10.23a38.93 38.93 0 0 1 3.89.42v6.1a11.2 11.2 0 0 1-7.87 3.13c-4.14 0-6.17-1.27-6.17-3.8 0-1.6.93-3 2.8-4.14a14.57 14.57 0 0 1 7.36-1.69zm17.42-10.15c-2.37 1.78-3.64 4-3.55 6.5 0 4.14 2.37 7 7 8.63a12.51 12.51 0 0 0-4.14 1.44c-1.1.68-1.7 1.44-1.7 2.28q0 4.06 7.1 4.06c1-.08 2.37-.17 4.14-.42a25.91 25.91 0 0 1 3.55-.34c4 0 5.92.93 5.92 3-.08 1-.85 1.86-2.37 2.62a15.83 15.83 0 0 1-6.26 1 22.38 22.38 0 0 1-9.64-2.62l-3.2 3.55a21.86 21.86 0 0 0 5.84 2.11 27.94 27.94 0 0 0 6.77.85 22.47 22.47 0 0 0 10.49-2.11c2.8-1.44 4.14-3.3 4.14-5.58a5.7 5.7 0 0 0-2.71-4.91 15.27 15.27 0 0 0-7.7-1.69 34.81 34.81 0 0 0-4.31.34 31.62 31.62 0 0 1-4.14.34c-2 0-3-.34-3-.93s.5-.85 1.52-1.1a7 7 0 0 1 2.28-.51l4.9-.42a14.19 14.19 0 0 0 8.29-3 8.27 8.27 0 0 0 .93-12.1l3.47-2-3.8-2.7-3 2.62a18 18 0 0 0-7.78-1.44 15.62 15.62 0 0 0-9.05 2.54zm4.4 2.62a7.33 7.33 0 0 1 5.08-1.61 6.81 6.81 0 0 1 4.82 1.61 5.17 5.17 0 0 1 1.95 4 5.7 5.7 0 0 1-1.86 4.4 6.87 6.87 0 0 1-4.91 1.61 7.1 7.1 0 0 1-5.08-1.69 5.26 5.26 0 0 1-1.86-4.31 4.83 4.83 0 0 1 1.86-4zm31.63-4.73h-10.5v3.72h4.57v21.32h5.92v-25.04zm51.5 10.4v2.46h.26v-2.46h.6v-.16h-1.44v.16h.6zm1.45 2.45h-.25v-2.62h.42l.6 2.28.68-2.28h.34v2.62h-.26v-2.46l-.6 2.46h-.25l-.68-2.46v2.46z"></path></symbol>
<symbol id="bootstrap" width="2000" height="2009"><defs><linearGradient x1="262.624" y1="547.206" x2="375.377" y2="432.484" id="A" gradientUnits="userSpaceOnUse"><stop offset="0" stop-color="#070135"/><stop offset="1" stop-color="#612d50"/></linearGradient></defs><g transform="matrix(15.623041,0,0,15.623041,-3987.6024,-6644.8835)"><rect width="128.016" height="128.546" ry="20.68" x="255.239" y="425.326" fill="url(#A)"/><path d="M320.213 480.665c3.27 0 5.748-.71 7.437-2.133s2.533-3.52 2.533-6.293c0-2.738-.844-4.818-2.533-6.24-1.69-1.458-4.168-2.187-7.437-2.187h-11.48v16.854h11.48m.7 34.827c4.167 0 7.293-.87 9.377-2.613 2.12-1.742 3.18-4.373 3.18-7.893 0-3.45-1.042-6.027-3.126-7.733-2.084-1.742-5.227-2.613-9.43-2.613h-12.18v20.854h12.18m19.293-28.64c4.455 1.28 7.904 3.645 10.347 7.093s3.665 7.68 3.665 12.694c0 7.68-2.623 13.405-7.868 17.174s-13.22 5.653-23.927 5.653h-34.436v-79.628h31.15c11.173 0 19.257 1.67 24.25 5.013 5.03 3.342 7.545 8.694 7.545 16.054 0 3.876-.916 7.182-2.748 9.92-1.832 2.702-4.49 4.71-7.976 6.027" font-weight="bold" font-size="109.797" text-anchor="middle" fill="#fff" font-family="Sans"/></g></symbol>
<symbol id="css" viewBox="0 0 342 480"><path d="M68.37.96l63-.1c.05 6.57.15 13.14-.1 19.7-14.55-.1-29.1 0-43.63.1l-.2 28.62 43.8.17c.17 5.4.1 10.82-.05 16.23l-62.82-.06V.96zm70.5-.06l63.8.07-.02 18.62c-15.47-.05-30.95.02-46.42.2v7.32l46.33.37.1 38.17a9694.61 9694.609 0 0 0-63.81.08c-.1-5.14-.12-10.27.03-15.4l44.23-.06.12-9.94c-14.8 0-29.63.05-44.44-.05L138.86.9zm70.9.1h63.67c.1 6.24.18 12.48-.02 18.7-15.54-.01-31.08.08-46.62.1l.23 7.65 46.34.28.06 38c-21.27-.06-42.54-.06-63.8.04-.13-5.12-.17-10.26.05-15.38l44.15-.05.08-9.95H209.58l.2-39.43z"/><path d="M0 92.46h341.75l-31.07 348.3L238 461.02 170.85 480h-.66l-63.96-18.2-75.03-21.03-25.87-289.8L0 94.33v-1.87m171.4 27.95l-.24 40.83c-39.08-.14-78.17-.03-117.25.01.67 13.2 2.44 26.33 4.26 39.43 36.36 1.35 72.77-.05 109.13 1.04L71.35 243.4c-2.74 1.22-5.67 2.14-8.12 3.92.27 14.5 2.6 28.94 3.64 43.42l58.13-.4 46.6-.1c-.74 23.86.23 47.75-.5 71.6-10.45-1.55-20.77-3.88-31.18-5.73-8.2-1.8-16.62-2.72-24.7-5.07l-2.97-34.4c-2.34-.72-4.82-.65-7.24-.7-11.74.07-23.5-.04-35.24.14 1.15 22.03 3.13 44.03 6.5 65.85l34.74 9.13c17.7 4.82 35.64 8.83 53.38 13.57 2.1.45 4.24 1.23 6.43 1.05 1.18 14.5.27 29.07.5 43.6 4.1-.66 8.1-1.67 12.06-2.9l100.68-27.62c1.67-13.2 2.45-26.5 3.77-39.72l10.67-120.65 12.32-138.05c-46.47.04-92.93-.1-139.4.06z" fill="#0170ba"/><path d="M171.4 120.4l139.4-.06-12.32 138.05-10.67 120.65c-1.32 13.23-2.1 26.52-3.77 39.72L183.36 446.4c-3.95 1.22-7.97 2.23-12.06 2.9-.22-14.53.7-29.1-.5-43.6l1.2-.24 93.4-24.6 11.08-132.67-79.5.17c-3.86.02-7.72 0-11.56-.28 14.26-7.34 29.26-13.16 43.9-19.7l42.37-18.6c2.72-1.25 5.62-2.3 8-4.15.94-3.45.9-7.06 1.26-10.6.8-11.2 2.25-22.34 2.8-33.55l-112.6-.24c.42-13.6 0-27.22.24-40.83zm.2 169.82c18.12-.3 36.25.18 54.38.06l-3.5 55.56c-11.1 3.63-22.4 6.7-33.6 10.06-5.97 1.82-12.1 3.26-17.78 5.93.73-23.86-.24-47.75.5-71.6z" fill="#29a9df"/><path d="M53.92 161.25l117.25-.01.43 128.98c-15.53.34-31.07.03-46.6.1l-58.13.4c-1.03-14.48-3.37-28.9-3.64-43.42 2.45-1.78 5.38-2.7 8.12-3.92l95.96-41.68c-36.36-1.1-72.77.3-109.13-1.04-1.82-13.1-3.6-26.22-4.26-39.43zm15.84 154.83l35.24-.14c2.42.04 4.9-.03 7.24.7l2.97 34.4c8.1 2.35 16.5 3.28 24.7 5.07 10.4 1.85 20.73 4.18 31.18 5.73 1 14.52-.75 29.14.92 43.6l-1.2.24c-2.2.18-4.32-.6-6.43-1.05L111 391.06l-34.74-9.13c-3.37-21.82-5.35-43.82-6.5-65.85z" fill="#cfcfcf"/><path d="M171.17 161.24l112.6.24c-.54 11.2-1.98 22.35-2.8 33.55-.37 3.53-.32 7.14-1.26 10.6-2.4 1.86-5.3 2.9-8 4.15l-42.37 18.6c-14.64 6.55-29.64 12.37-43.9 19.7 3.84.28 7.7.3 11.56.28l79.5-.17c-2.77 44.3-7.14 88.47-11.08 132.67l-93.4 24.6c-1.67-14.47.08-29.1-.92-43.6 5.68-2.67 11.8-4.1 17.78-5.93l33.6-10.06 3.5-55.56c-18.13.12-36.26-.37-54.38-.06l-.43-128.98z" fill="#fff"/></symbol>
<symbol id="docker" width="2500" height="2100" viewBox="0 0 256 215" fill-rule="evenodd"><path d="M38.617 173.984v-16.362c0-2.15 1.344-3.877 3.57-3.877h.616c2.225 0 3.563 1.73 3.563 3.877v34.447c0 8.4-4.15 15.084-11.382 19.342a21.374 21.374 0 0 1-10.945 2.985h-1.537c-8.402 0-15.077-4.153-19.342-11.38a21.314 21.314 0 0 1-2.984-10.947v-1.535c0-8.403 4.152-15.083 11.378-19.35a21.298 21.298 0 0 1 10.948-2.985h1.537c5.686 0 10.5 2.204 14.578 5.784zM7.924 191.3c0 6.068 2.94 10.63 8.258 13.54 2.15 1.176 4.484 1.808 6.937 1.808 5.956 0 10.374-2.8 13.42-7.857 1.417-2.348 2.077-4.917 2.077-7.648 0-5.26-2.5-9.365-6.73-12.414-2.57-1.848-5.463-2.775-8.618-2.775-6.492 0-11.164 3.28-13.968 9.106-.946 1.97-1.378 4.06-1.378 6.24zm65.324-23.1h1.074c8.978 0 15.806 4.355 20.133 12.192 1.73 3.135 2.656 6.557 2.656 10.142v1.535c0 8.4-4.142 15.093-11.385 19.343-3.353 1.967-7.057 2.984-10.943 2.984h-1.535c-8.402 0-15.08-4.153-19.342-11.38a21.316 21.316 0 0 1-2.987-10.947v-1.535c0-8.404 4.17-15.062 11.377-19.347a21.2 21.2 0 0 1 10.952-2.987zm-14.58 23.1c0 5.9 2.9 10.223 7.865 13.27 2.336 1.43 4.91 2.078 7.638 2.078 5.82 0 10.122-2.95 13.116-7.863 1.428-2.342 2.074-4.915 2.074-7.642 0-5.477-2.638-9.66-7.148-12.693a14.41 14.41 0 0 0-8.198-2.496c-6.492 0-11.164 3.28-13.967 9.106-.948 1.97-1.38 4.06-1.38 6.24zm70.656-14.727c-1.17-.548-3.36-.73-4.624-.778-6.474-.244-11.158 3.402-13.906 9.113-.95 1.97-1.382 4.055-1.382 6.235 0 6.637 3.485 11.284 9.41 14.117 2.164 1.034 4.958 1.23 7.323 1.23 2.08 0 5.02-1.274 6.866-2.15l.32-.152h1.433l.158.032c1.762.367 3.092 1.484 3.092 3.38v.767c0 4.718-8.622 5.798-11.912 6.028-11.6.803-20.293-5.573-23.603-16.647-.575-1.923-.834-3.833-.834-5.837v-1.533c0-8.403 4.17-15.06 11.377-19.34 3.35-2 7.057-3 10.95-3h1.536c4.13 0 7.934 1.173 11.344 3.502l.28.194.177.292c.368.6.685 1.316.685 2.042v.767c0 1.978-1.48 3.042-3.266 3.386l-.148.026h-.458c-1.156 0-3.785-1.197-4.817-1.683zm25.134 5.247l9.085-8.986c.85-.827 4.074-4.327 5.343-4.327h1.388l.158.033c1.768.367 3.092 1.486 3.092 3.386v.766c0 1.296-1.518 2.802-2.355 3.69-1.78 1.887-3.654 3.712-5.476 5.56l-9.362 9.504 12.056 12.154a313.304 313.304 0 0 1 3.301 3.396c.385.405.953.91 1.276 1.47.347.526.56 1.12.56 1.752v.8l-.045.185c-.435 1.768-1.557 3.194-3.516 3.194h-.617c-1.282 0-2.73-1.45-3.608-2.28-1.8-1.706-3.557-3.5-5.33-5.243l-5.95-5.84v9.334c0 2.15-1.346 3.878-3.57 3.878h-.6c-2.226 0-3.57-1.728-3.57-3.878v-52.596c0-2.15 1.345-3.87 3.57-3.87h.6c2.223 0 3.57 1.72 3.57 3.87v24.048zm96.577-13.313h.77c2.324 0 3.875 1.566 3.875 3.877 0 3.208-3.067 4.03-5.72 4.03-3.48 0-6.803 2.107-9.202 4.47-2.99 2.95-4.3 6.726-4.3 10.878v18.76c0 2.15-1.343 3.876-3.57 3.876h-.612c-2.227 0-3.57-1.725-3.57-3.876v-19.836c0-7.617 3.708-13.835 9.9-18.196 3.69-2.605 7.92-3.98 12.438-3.98zm-55.074 37.176c2.82.985 6.035.844 8.928.34 1.48-.63 5.264-2.28 6.656-2.038l.217.037.2.098c.85.412 1.66.995 2.095 1.86 1.014 2.027.527 4.065-1.465 5.216l-.663.383c-7.35 4.242-15.168 3.654-22.495-.308-3.503-1.894-6.183-4.705-8.16-8.132l-.462-.8c-4.72-8.172-4.082-16.768 1.24-24.54 1.837-2.686 4.238-4.76 7.045-6.384l1.062-.613c6.922-3.996 14.34-3.722 21.45-.215 3.823 1.886 6.92 4.697 9.054 8.394l.384.666c1.55 2.686-.458 5.026-2.53 6.626-2.406 1.856-4.835 4.1-7.14 6.08l-15.414 13.33zm-6.655-4.674l23.3-20.037c-1.56-1.966-4.166-3.383-6.38-4.228-4.47-1.703-8.877-1.13-12.976 1.235-5.365 3.098-7.65 8.03-7.45 14.17.08 2.418.73 4.748 2.013 6.805.452.725.957 1.406 1.503 2.055zM147.488 45.732h22.866v23.375h11.56c5.34 0 10.83-.95 15.887-2.664 2.485-.843 5.273-2.015 7.724-3.5-3.228-4.214-4.876-9.535-5.36-14.78-.66-7.135.78-16.42 5.608-22.005l2.404-2.78 2.864 2.303c7.21 5.793 13.276 13.89 14.345 23.118 8.683-2.554 18.878-1.95 26.53 2.467l3.14 1.812-1.652 3.226C246.933 68.946 233.4 72.86 220.17 72.167c-19.797 49.31-62.898 72.653-115.157 72.653-27 0-51.77-10.093-65.876-34.047l-.23-.4-2.055-4.182c-4.768-10.544-6.352-22.095-5.278-33.637l.323-3.457H51.45V45.732h22.865V22.866h45.733V0h27.44v45.732" fill="#364548"/><path d="M221.57 54.38c1.533-11.916-7.384-21.275-12.914-25.72-6.373 7.368-7.363 26.678 2.635 34.808-5.58 4.956-17.337 9.448-29.376 9.448H35.37c-1.17 12.567 1.036 24.14 6.075 34.045l1.667 3.05a56.536 56.536 0 0 0 3.455 5.184c6.025.387 11.58.52 16.662.408h.002c9.987-.22 18.136-1.4 24.312-3.54a1.761 1.761 0 0 1 1.153 3.326c-.822.286-1.678.552-2.562.805h-.003c-4.863 1.39-10.078 2.323-16.806 2.738.4.007-.416.06-.418.06-.23.015-.517.048-.747.06-2.648.15-5.506.18-8.428.18-3.196 0-6.343-.06-9.862-.24l-.1.06c12.2 13.724 31.302 21.955 55.234 21.955 50.648 0 93.608-22.452 112.632-72.857 13.496 1.385 26.467-2.057 32.367-13.575-9.398-5.423-21.484-3.694-28.443-.196" fill="#22a0c8"/><path d="M221.57 54.38c1.533-11.916-7.384-21.275-12.914-25.72-6.373 7.368-7.363 26.678 2.635 34.808-5.58 4.956-17.337 9.448-29.376 9.448H44.048c-.598 19.246 6.544 33.855 19.18 42.687h.003c9.987-.22 18.136-1.4 24.312-3.54a1.761 1.761 0 0 1 1.153 3.326c-.822.286-1.678.552-2.562.805h-.003c-4.863 1.39-10.526 2.443-17.254 2.858-.002 0-.163-.155-.165-.155 17.237 8.842 42.23 8.8 70.885-2.197 32.13-12.344 62.03-35.86 82.9-62.757a25.23 25.23 0 0 0-.917.436" fill="#37b1d9"/><path d="M35.645 88.186c.9 6.732 2.88 13.035 5.8 18.776l1.667 3.05a56.432 56.432 0 0 0 3.455 5.184c6.026.387 11.58.52 16.664.408 9.987-.22 18.136-1.4 24.312-3.54a1.761 1.761 0 0 1 1.153 3.326c-.822.286-1.678.552-2.562.805h-.003c-4.863 1.39-10.496 2.383-17.224 2.8-.23.014-.634.017-.867.03-2.646.148-5.475.24-8.398.24-3.195 0-6.463-.06-9.98-.24 12.2 13.724 31.42 21.985 55.352 21.985 43.36 0 81.084-16.458 102.98-52.822H35.645" fill="#1b81a5"/><path d="M45.367 88.186c2.592 11.82 8.82 21.1 17.864 27.418 9.987-.22 18.136-1.4 24.312-3.54a1.761 1.761 0 0 1 1.153 3.326c-.822.286-1.678.552-2.562.805h-.003c-4.863 1.39-10.615 2.383-17.344 2.8 17.236 8.84 42.157 8.713 70.8-2.293 17.334-6.66 34.017-16.574 48.984-28.515H45.367" fill="#1d91b4"/><path d="M55.26 49.543h19.818V69.36H55.26V49.543zm1.65 1.652h1.564V67.7H56.91V51.195zm2.94 0h1.627V67.7h-1.626V51.195zm3.002 0h1.627V67.7h-1.627V51.195zm3.004 0h1.626V67.7h-1.626V51.195zm3.003 0h1.626V67.7H68.86V51.195zm3.002 0h1.565V67.7h-1.565V51.195zm6.264-24.518h19.82v19.817h-19.82V26.677zm1.652 1.652h1.563v16.514h-1.563V28.33zm2.94 0h1.626v16.514H82.72V28.33zm3.002 0h1.626v16.514H85.72V28.33zm3.003 0h1.626v16.514h-1.626V28.33zm3.003 0h1.627v16.514h-1.627V28.33zm3.002 0h1.566v16.514h-1.566V28.33z" fill="#23a3c2"/><path d="M78.126 49.543h19.82V69.36h-19.82V49.543zm1.652 1.652h1.563V67.7h-1.563V51.195zm2.94 0h1.626V67.7H82.72V51.195zm3.002 0h1.626V67.7H85.72V51.195zm3.003 0h1.626V67.7h-1.626V51.195zm3.003 0h1.627V67.7h-1.627V51.195zm3.002 0h1.566V67.7h-1.566V51.195z" fill="#34bbde"/><path d="M100.993 49.543h19.818V69.36h-19.818V49.543zm1.65 1.652h1.563V67.7h-1.563V51.195zm2.94 0h1.626V67.7h-1.626V51.195zm3.003 0h1.626V67.7h-1.626V51.195zm3.003 0h1.626V67.7H111.6V51.195zm3.002 0h1.628V67.7h-1.628V51.195zm3.003 0h1.564V67.7h-1.564V51.195z" fill="#23a3c2"/><path d="M100.993 26.677h19.818v19.817h-19.818V26.677zm1.65 1.652h1.563v16.514h-1.563V28.33zm2.94 0h1.626v16.514h-1.626V28.33zm3.003 0h1.626v16.514h-1.626V28.33zm3.003 0h1.626v16.514H111.6V28.33zm3.002 0h1.628v16.514h-1.628V28.33zm3.003 0h1.564v16.514h-1.564V28.33zm6.264 21.214h19.818V69.36H123.86V49.543zm1.652 1.652h1.563V67.7h-1.563V51.195zm2.94 0h1.626V67.7h-1.626V51.195zm3.002 0h1.626V67.7h-1.626V51.195zm3.003 0h1.627V67.7h-1.627V51.195zm3.003 0h1.627V67.7h-1.627V51.195zm3.003 0h1.564V67.7h-1.564V51.195z" fill="#34bbde"/><path d="M123.86 26.677h19.818v19.817H123.86V26.677zm1.652 1.652h1.563v16.514h-1.563V28.33zm2.94 0h1.626v16.514h-1.626V28.33zm3.002 0h1.626v16.514h-1.626V28.33zm3.003 0h1.627v16.514h-1.627V28.33zm3.003 0h1.627v16.514h-1.627V28.33zm3.003 0h1.564v16.514h-1.564V28.33z" fill="#23a3c2"/><path d="M123.86 3.8h19.818v19.82H123.86V3.8zm1.652 1.65h1.563v16.516h-1.563V5.46zm2.94 0h1.626v16.516h-1.626V5.46zm3.002 0h1.626v16.516h-1.626V5.46zm3.003 0h1.627v16.516h-1.627V5.46zm3.003 0h1.627v16.516h-1.627V5.46zm3.003 0h1.564v16.516h-1.564V5.46z" fill="#34bbde"/><path d="M146.725 49.543h19.818V69.36h-19.818V49.543zm1.65 1.652h1.565V67.7h-1.564V51.195zm2.94 0h1.627V67.7h-1.626V51.195zm3.004 0h1.627V67.7h-1.627V51.195zm3.002 0h1.627V67.7h-1.627V51.195zm3.004 0h1.626V67.7h-1.626V51.195zm3.002 0h1.564V67.7h-1.564V51.195z" fill="#23a3c2"/><path d="M96.704 101.492a5.468 5.468 0 1 1-.002 10.935 5.468 5.468 0 0 1 .002-10.935" fill="#d3ecec"/><path d="M96.704 103.043a3.9 3.9 0 0 1 1.417.265 1.598 1.598 0 0 0 .798 2.98c.605 0 1.13-.335 1.402-.83a3.915 3.915 0 1 1-3.617-2.414M0 90.162h254.327c-5.537-1.404-17.52-3.302-15.544-10.56-10.07 11.652-34.353 8.175-40.482 2.43-6.824 9.898-46.554 6.135-49.325-1.576-8.556 10.04-35.067 10.04-43.623 0-2.773 7.71-42.502 11.474-49.327 1.575-6.128 5.746-30.4 9.223-40.48-2.428C17.522 86.86 5.54 88.758 0 90.163" fill="#364548"/><path d="M111.237 140.9c-13.54-6.425-20.97-15.16-25.106-24.694-5.03 1.435-11.075 2.353-18.1 2.747-2.646.148-5.43.224-8.35.224-3.368 0-6.917-.1-10.643-.297 12.417 12.4 27.692 21.964 55.976 22.138 2.088 0 4.16-.04 6.223-.118" fill="#bdd9d7"/><path d="M91.16 124.994c-1.873-2.543-3.7-5.74-5.026-8.8-5.03 1.437-11.077 2.355-18.103 2.75 4.826 2.62 11.727 5.046 23.13 6.05" fill="#d3ecec"/></symbol>
<symbol id="html" viewBox="0 0 512 512"><path d="M108.4 0h23v22.8h21.2V0h23v69h-23V46h-21v23h-23.2M206 23h-20.3V0h63.7v23H229v46h-23m53.5-69h24.1l14.8 24.3L313.2 0h24.1v69h-23V34.8l-16.1 24.8-16.1-24.8V69h-22.6m89.2-69h23v46.2h32.6V69h-55.6"/><path d="M107.6 471l-33-370.4h362.8l-33 370.2L255.7 512" fill="#e44d26"/><path d="M256 480.5V131H404.3L376 447" fill="#f16529"/><path d="M142 176.3h114v45.4h-64.2l4.2 46.5h60v45.3H154.4m2 22.8H202l3.2 36.3 50.8 13.6v47.4l-93.2-26" fill="#ebebeb"/><path d="M369.6 176.3H255.8v45.4h109.6m-4.1 46.5H255.8v45.4h56l-5.3 59-50.7 13.6v47.2l93-25.8" fill="#fff"/></symbol>
<symbol id="javascript" viewBox="0 0 320 450"><path d="M40.845 401.254L13.775 97.632h297.45l-27.098 303.573-121.81 33.77z" fill="#EFC725"/><path d="M162.25 408.787l98.428-27.287 23.158-259.417H162.25z" fill="#FBDE34"/><path d="M162.193 331.426l-.162.047-41.472-11.2-2.653-29.697h-37.38l5.217 58.468 76.277 21.176.172-.05zm5.017-59.49V234.7h-45.854l5.377-58.442 40.58-1.08-.103-38.723H93.065l-2.754 27.45-9.66 108.034h10.035z" fill="#EBEBEB"/><g fill="#fff"><path d="M166.957 175.23l.163-.046 40.67 2.45 3.45 38.447h37.38l-6.514-71.946-74.98-7.696-.172.048z"/><path d="M244.784 175.343l-3.2-38.9H163v38.9h81.794m-82.73 59.375v37.236h45.854l-4.322 48.293-41.532 11.212v38.74l76.34-21.158 10.22-114.325H238.6zM240 173.693"/></g><path d="M214.945 30.57h-24.69l25.676 27.86v13.26H163.05V56.165h25.67l-25.67-27.86v-13.28h51.896V30.57z" fill="#151515"/><path d="M153.63 15.05v56.617h-45.543V52.953H134.7V15.05h18.93z" fill="#020202"/><path d="M239.5 173.693" fill="#fff"/></symbol>
<symbol id="reactjs" viewBox="0 0 841.9 595.3"><g fill="#61DAFB"><path d="M666.3 296.5c0-32.5-40.7-63.3-103.1-82.4 14.4-63.6 8-114.2-20.2-130.4-6.5-3.8-14.1-5.6-22.4-5.6v22.3c4.6 0 8.3.9 11.4 2.6 13.6 7.8 19.5 37.5 14.9 75.7-1.1 9.4-2.9 19.3-5.1 29.4-19.6-4.8-41-8.5-63.5-10.9-13.5-18.5-27.5-35.3-41.6-50 32.6-30.3 63.2-46.9 84-46.9V78c-27.5 0-63.5 19.6-99.9 53.6-36.4-33.8-72.4-53.2-99.9-53.2v22.3c20.7 0 51.4 16.5 84 46.6-14 14.7-28 31.4-41.3 49.9-22.6 2.4-44 6.1-63.6 11-2.3-10-4-19.7-5.2-29-4.7-38.2 1.1-67.9 14.6-75.8 3-1.8 6.9-2.6 11.5-2.6V78.5c-8.4 0-16 1.8-22.6 5.6-28.1 16.2-34.4 66.7-19.9 130.1-62.2 19.2-102.7 49.9-102.7 82.3 0 32.5 40.7 63.3 103.1 82.4-14.4 63.6-8 114.2 20.2 130.4 6.5 3.8 14.1 5.6 22.5 5.6 27.5 0 63.5-19.6 99.9-53.6 36.4 33.8 72.4 53.2 99.9 53.2 8.4 0 16-1.8 22.6-5.6 28.1-16.2 34.4-66.7 19.9-130.1 62-19.1 102.5-49.9 102.5-82.3zm-130.2-66.7c-3.7 12.9-8.3 26.2-13.5 39.5-4.1-8-8.4-16-13.1-24-4.6-8-9.5-15.8-14.4-23.4 14.2 2.1 27.9 4.7 41 7.9zm-45.8 106.5c-7.8 13.5-15.8 26.3-24.1 38.2-14.9 1.3-30 2-45.2 2-15.1 0-30.2-.7-45-1.9-8.3-11.9-16.4-24.6-24.2-38-7.6-13.1-14.5-26.4-20.8-39.8 6.2-13.4 13.2-26.8 20.7-39.9 7.8-13.5 15.8-26.3 24.1-38.2 14.9-1.3 30-2 45.2-2 15.1 0 30.2.7 45 1.9 8.3 11.9 16.4 24.6 24.2 38 7.6 13.1 14.5 26.4 20.8 39.8-6.3 13.4-13.2 26.8-20.7 39.9zm32.3-13c5.4 13.4 10 26.8 13.8 39.8-13.1 3.2-26.9 5.9-41.2 8 4.9-7.7 9.8-15.6 14.4-23.7 4.6-8 8.9-16.1 13-24.1zM421.2 430c-9.3-9.6-18.6-20.3-27.8-32 9 .4 18.2.7 27.5.7 9.4 0 18.7-.2 27.8-.7-9 11.7-18.3 22.4-27.5 32zm-74.4-58.9c-14.2-2.1-27.9-4.7-41-7.9 3.7-12.9 8.3-26.2 13.5-39.5 4.1 8 8.4 16 13.1 24 4.7 8 9.5 15.8 14.4 23.4zM420.7 163c9.3 9.6 18.6 20.3 27.8 32-9-.4-18.2-.7-27.5-.7-9.4 0-18.7.2-27.8.7 9-11.7 18.3-22.4 27.5-32zm-74 58.9c-4.9 7.7-9.8 15.6-14.4 23.7-4.6 8-8.9 16-13 24-5.4-13.4-10-26.8-13.8-39.8 13.1-3.1 26.9-5.8 41.2-7.9zm-90.5 125.2c-35.4-15.1-58.3-34.9-58.3-50.6 0-15.7 22.9-35.6 58.3-50.6 8.6-3.7 18-7 27.7-10.1 5.7 19.6 13.2 40 22.5 60.9-9.2 20.8-16.6 41.1-22.2 60.6-9.9-3.1-19.3-6.5-28-10.2zM310 490c-13.6-7.8-19.5-37.5-14.9-75.7 1.1-9.4 2.9-19.3 5.1-29.4 19.6 4.8 41 8.5 63.5 10.9 13.5 18.5 27.5 35.3 41.6 50-32.6 30.3-63.2 46.9-84 46.9-4.5-.1-8.3-1-11.3-2.7zm237.2-76.2c4.7 38.2-1.1 67.9-14.6 75.8-3 1.8-6.9 2.6-11.5 2.6-20.7 0-51.4-16.5-84-46.6 14-14.7 28-31.4 41.3-49.9 22.6-2.4 44-6.1 63.6-11 2.3 10.1 4.1 19.8 5.2 29.1zm38.5-66.7c-8.6 3.7-18 7-27.7 10.1-5.7-19.6-13.2-40-22.5-60.9 9.2-20.8 16.6-41.1 22.2-60.6 9.9 3.1 19.3 6.5 28.1 10.2 35.4 15.1 58.3 34.9 58.3 50.6-.1 15.7-23 35.6-58.4 50.6zM320.8 78.4z"/><circle cx="420.9" cy="296.5" r="45.7"/><path d="M520.5 78.1z"/></g></symbol><symbol id="less" viewBox="0 0 961.06 429"><defs><linearGradient id="a" x1="464.32" x2="464.32" y1="532.27" y2="108.46" gradientTransform="matrix(1 0 0 -1 -110.82 852.73)" gradientUnits="userSpaceOnUse"><stop stop-color="#2a4f84" offset=".1497"/><stop stop-color="#294e82" offset=".3884"/><stop stop-color="#172e4e" offset="1"/></linearGradient></defs><g transform="translate(130.53 -317.84)"><path d="m778.76 662.53c0 44.958-36.784 81.742-81.742 81.742h-687.05c-44.958 0-81.742-36.784-81.742-81.742v-260.32c0-44.958 36.784-81.742 81.742-81.742h687.05c44.958 0 81.742 36.784 81.742 81.742v260.32z" fill="url(#a)"/><path d="m635.04 526.81c35.909 12.563 53.856 34.088 53.856 64.543 0 20.046-7.443 35.957-22.296 47.725-14.838 11.776-36.005 19.084-63.557 19.084s-53.037-7.983-76.51-21.088c0.254-6.95 2.091-14.575 5.463-22.852s7.363-14.853 11.936-19.656c21.573 11.211 40.346 16.826 56.281 16.826 7.531 0 13.358-1.264 17.414-3.809 4.063-2.536 6.083-5.94 6.083-10.217 0-8.039-6.226-14.051-18.638-18.058l-22.296-8.421c-33.73-12.293-50.596-32.323-50.596-60.146 0-20.316 7.085-36.418 21.255-48.33 14.17-11.895 33.269-22.137 57.283-22.137 11.88 0 24.96 1.67 39.272 5.01 14.297 3.348 26.042 11.594 35.218 16.125 0.541 7.49-0.962 15.712-4.452 24.665-3.515 8.961-7.824 15.306-12.969 19.052-22.685-10.162-41.562-15.243-56.686-15.243-5.415 0-9.494 1.201-12.357 3.618-2.831 2.41-4.223 5.478-4.223 9.224 0 6.417 5.121 11.49 15.386 15.235l25.133 8.85z" fill="#f6f6f6"/><path d="m455.68 526.81c35.909 12.563 53.848 34.088 53.848 64.543 0 20.046-7.443 35.957-22.272 47.725-14.853 11.776-36.028 19.084-63.572 19.084-27.528 0-53.045-7.983-76.51-21.088 0.254-6.95 2.091-14.575 5.47-22.852 3.372-8.277 7.347-14.853 11.936-19.656 21.597 11.211 40.362 16.826 56.289 16.826 7.538 0 13.366-1.264 17.406-3.809 4.048-2.536 6.083-5.94 6.083-10.217 0-8.039-6.226-14.051-18.638-18.058l-22.281-8.421c-33.738-12.293-50.611-32.323-50.611-60.146 0-20.316 7.085-36.418 21.27-48.33 14.162-11.895 33.253-22.137 57.267-22.137 11.872 0 24.984 1.67 39.265 5.01 14.313 3.348 26.042 11.594 35.225 16.125 0.541 7.49-0.962 15.712-4.452 24.665-3.507 8.961-7.824 15.306-12.961 19.052-22.694-10.162-41.571-15.243-56.702-15.243-5.407 0-9.502 1.201-12.349 3.618-2.823 2.41-4.23 5.478-4.23 9.224 0 6.417 5.128 11.49 15.394 15.235l25.125 8.85z" fill="#f6f6f6"/><path d="m324.89 529.64c0-12.293-1.956-23.656-5.868-34.089-3.904-10.432-9.51-19.378-16.794-26.868-7.292-7.49-16.126-13.367-26.511-17.645-10.401-4.27-22.074-10.711-35.027-10.711-15.387 0-28.816 6.966-40.282 12.317-11.466 5.344-20.913 12.691-28.332 22.05-7.435 9.366-12.969 20.388-16.611 33.086-3.642 12.699-5.463 26.534-5.463 41.499 0 15.49 1.479 29.818 4.453 42.914 2.966 13.08 8.03 24.435 15.18 34.073 7.156 9.621 16.467 17.104 27.941 22.439 11.474 5.344 25.715 9.447 42.716 9.447 31.305 0 57.752-9.065 79.348-24.292-2.139-15.49-7.657-27.807-16.523-36.896-11.029 4.142-20.786 7.108-29.246 8.93-8.468 1.798-15.935 2.704-22.383 2.704-12.906 0-22.193-3.284-27.83-9.915-5.631-6.608-8.72-14.424-9.267-26.296h105.26c3.477-11.243 5.234-26.438 5.234-42.747zm-110.9 2.776c0.802-13.645 3.292-28.244 7.435-34.255 4.151-6.019 10.504-9.025 19.083-9.025 8.835 0 15.466 3.197 19.879 9.614 4.422 6.417 6.631 19.346 6.631 29.237l8e-3 4.429h-53.036z" fill="#f6f6f6"/><path d="m799.95 559.09c-11.442 9.995-18.082 24.379-18.082 43.185v70.037c0 23.282-7.157 40.99-23.322 53.164-16.15 12.158-34.979 18.177-56.472 18.757l-12.738-0.096v-34.899c11.228-3.276 15.839-7.084 20.308-11.41 8.095-7.315 14.297-19.219 14.297-35.75v-56.543c0.302-19.219 1.781-34.279 8.778-45.157 7.022-10.878 20.69-20.388 41.006-28.602-22.439-10.273-37.508-23.688-45.189-40.235-4.516-9.828-4.604-23.091-4.604-39.774v-51.852c0-17.128-5.606-29.126-12.5-35.973-4.484-4.469-9.701-8.039-22.113-10.734v-32.761c15.18 0.159 22.845-0.015 31.687 0 13.613-0.111 25.016 7.332 34.939 15.084 10.807 8.5 18.487 19.991 22.988 34.454 2.56 8.357 2.926 16.341 2.926 23.942v59.971c0 21.182 6.258 36.927 16.953 47.208 6.028 5.964 14.536 11.418 29.143 16.341v27.091c-12.944 3.579-21.071 8.429-28.005 14.552z" fill="#f6f6f6" stroke="#404040" stroke-miterlimit="10" stroke-width="5.1509"/><path d="m-5.2445 320.47v0.047c-4.349-0.024-8.286-0.04-11.434-0.032-13.621-0.119-25.023 7.324-34.938 15.084-10.822 8.5-20.085 19.593-22.987 34.454-1.654 8.715-1.304 16.332-1.304 23.942v59.971c0 21.175-7.88 36.911-18.567 47.209-6.02 5.963-18.87 11.409-33.485 16.331v27.09c12.953 3.571 25.422 8.405 32.339 14.544 11.45 10.003 19.703 24.396 19.703 43.2v70.037c0 23.267 5.551 40.991 21.7 53.148 16.15 12.15 34.971 18.193 56.464 18.781l14.384-0.096v-34.923c-11.22-3.284-17.453-7.093-21.946-11.403-8.087-7.324-12.667-19.219-12.667-35.742v-56.551c-0.31-19.234-3.411-34.279-10.416-45.165-7.005-10.862-20.674-20.388-41.014-28.594 22.448-10.281 37.508-23.688 45.189-40.227 4.525-9.836 6.242-23.099 6.242-39.781v-51.852c0-17.128 3.975-29.126 10.862-35.98 3.737-3.721 10.384-6.783 19.617-9.263l14.599 0.102v-34.334h-32.339v3e-3h-2e-3z" fill="#f6f6f6" stroke="#404040" stroke-miterlimit="10" stroke-width="5.1509"/><path d="m129.35 604.61h-10.933c-11.887 0-16.364-6.25-16.364-18.805v-230.75c0-13.875-4.007-23.616-9.137-29.229-5.129-5.598-14.034-5.542-26.717-5.542h-24.69l-2.91-0.056v0.238l-0.024 34.343v242.16c0 19.258 4.326 33.349 12.022 42.318 7.705 8.953 20.722 13.422 39.074 13.422 12.691 0 27.131-1.336 43.32-4.016 0.811-2.704 1.217-8.492 1.217-17.374 0-8.906-1.621-17.788-4.858-26.71z" fill="#f6f6f6"/></g></symbol>
<symbol id="linux" width="666.667" height="800"><defs><linearGradient id="A" xlink:href="#b"><stop offset="0" stop-color="#fff" stop-opacity=".65"/><stop offset="1" stop-color="#fff" stop-opacity="0"/></linearGradient><linearGradient id="B" xlink:href="#b"><stop offset="0" stop-color="#ffa63f"/><stop offset="1" stop-color="#ff0"/></linearGradient><linearGradient id="C" xlink:href="#b"><stop offset="0" stop-color="#ffeed7"/><stop offset="1" stop-color="#bdbfc2"/></linearGradient><linearGradient id="D" xlink:href="#b"><stop offset="0" stop-color="#fff" stop-opacity=".8"/><stop offset="1" stop-color="#fff" stop-opacity="0"/></linearGradient><radialGradient id="E" gradientTransform="scale(1.045233,0.956725)" cx="446.778" cy="1219.413" fx="446.778" fy="1219.413" r="195.072" xlink:href="#b"><stop offset="0" stop-color="#3f2600" stop-opacity=".6"/><stop offset="1" stop-color="#3f2600" stop-opacity="0"/></radialGradient><linearGradient xlink:href="#C" id="F" x1="230.437" y1="642.369" x2="230.591" y2="528.592"/><linearGradient xlink:href="#D" id="G" x1="338.189" y1="213.187" x2="331.569" y2="295.766"/><linearGradient xlink:href="#C" id="H" x1="309.402" y1="341.216" x2="310.492" y2="298.735"/><linearGradient xlink:href="#C" id="I" x1="311.402" y1="339.86" x2="310.719" y2="300.899"/><linearGradient xlink:href="#A" id="J" x1="309.531" y1="295.074" x2="307.652" y2="344.173"/><linearGradient xlink:href="#A" id="K" x1="318.136" y1="310.016" x2="316.04" y2="331.269"/><linearGradient xlink:href="#C" id="L" spreadMethod="reflect" x1="355.689" y1="650.635" x2="355.689" y2="484.839"/><linearGradient xlink:href="#C" id="M" x1="243.782" y1="646.038" x2="245.284" y2="498.686"/><linearGradient xlink:href="#D" id="N" x1="344.743" y1="463.509" x2="345.357" y2="571.74"/><linearGradient xlink:href="#A" id="O" x1="347.314" y1="404.148" x2="348.142" y2="453.558"/><linearGradient xlink:href="#A" id="P" x1="235.098" y1="424.944" x2="235.098" y2="579.752"/><linearGradient xlink:href="#A" id="Q" x1="496.7" y1="409.904" x2="496.694" y2="549.776"/><linearGradient xlink:href="#B" id="R" x1="238.974" y1="649.631" x2="214.957" y2="729.018"/><linearGradient xlink:href="#C" id="S" x1="406.558" y1="651.896" x2="297.959" y2="326.422"/><linearGradient xlink:href="#B" id="T" x1="220.266" y1="624.156" x2="205.128" y2="730.656"/><linearGradient xlink:href="#A" id="U" x1="118.8" y1="582.735" x2="183.653" y2="699.329"/><linearGradient xlink:href="#A" id="V" x1="222.99" y1="570.701" x2="230.421" y2="711.33"/><linearGradient xlink:href="#A" id="W" x1="337.699" y1="430.154" x2="395.949" y2="561.543"/><linearGradient xlink:href="#B" id="X" x1="346.943" y1="336.809" x2="347.885" y2="398.544"/><linearGradient xlink:href="#A" id="Y" x1="352.925" y1="326.41" x2="352.379" y2="394.912"/><path id="Z" d="M 328.86324 320.64151 A 18.087479 27.131195 0 1 1 292.68828,320.64151 A 18.087479 27.131195 0 1 1 328.86324 320.64151 z"/><path id="a" d="M415.072 495.764c-3.007 24.906-35.813 76.627-69.518 81.534-34.26 5.336-66.432-34.06-74.147-71.114-9.89-41.206 22.587-57.6 71.938-56.627 53.3 1.654 74.12 13.89 71.727 46.207z"/><linearGradient id="b" gradientUnits="userSpaceOnUse"/></defs><g transform="translate(-310.752 -64.253)"><path transform="matrix(1.4177 0 0 .414745 -38.7944 222.194)" d="M 670.88202 1166.6423 A 203.89551 186.63016 0 1 1 263.091,1166.6423 A 203.89551 186.63016 0 1 1 670.88202 1166.6423 z" fill="url(#E)"/><path d="M464.988 622.795c-27.985-40.28-33.442-171.23 31.86-251.787 32.357-38.648 40.613-65.58 43.164-101.74 1.736-41.224-29.156-164.302 87.354-173.68 118.007-9.415 111.67 107.075 110.99 168.72-.564 52.05 38.217 81.55 64.745 122.12 49.1 74.538 44.946 202.875-9.25 272.34-68.646 86.96-127.44 49.248-166.487 52.413-73.116 4.002-75.534 42.99-162.376-88.38z"/><path transform="matrix(-1.67739 -.022452 -.021124 1.4709 1173.58 -293.017)" d="M246.57 470.864c-12.24 12.496-44.396 69.092 4.87 105.36 17.37 12.633-16.377 59.495-32.005 36.308-27.57-41.618-8.83-106.94 8.315-130.188 11.652-16.487 29.23-22.676 18.82-11.48z" fill="url(#F)"/><path d="M744.307 382.6c33.408 26.996 94.238 122.038 5.516 183.772-29.14 19.248 25.823 79.94 56.684 48.895 107.3-107.91-2.8-231.996-40.7-274.654-33.873-37.098-63.878 8.765-21.5 41.987z" stroke="#000" stroke-width="1.566"/><path transform="matrix(1.26626 -.071367 -.045979 1.19574 202.143 -125.761)" d="M 399.56879 258.15753 A 58.37323 46.863022 0 1 1 282.82233,258.15753 A 58.37323 46.863022 0 1 1 399.56879 258.15753 z" fill="url(#G)"/><use xlink:href="#Z" transform="matrix(1.30445 -.075533 .077125 1.34257 144.757 -177.617)" fill="url(#H)"/><use xlink:href="#Z" transform="matrix(-1.81082 .049511 .031732 1.55333 1207.46 -284.777)" fill="url(#I)"/><path d="M637.1 234.83c-.273 12.776 6.172 23.148 14.395 23.166s15.1-10.325 15.384-23.102-6.172-23.148-14.395-23.166-15.1 10.325-15.384 23.102zm-52.126.134c1.03 10.576-2.946 19.736-8.884 20.458s-11.587-7.266-12.618-17.843 2.946-19.736 8.884-20.458 11.587 7.266 12.618 17.843z"/><use xlink:href="#Z" transform="matrix(-.480323 -.036454 -.046793 .475606 813.496 87.0124)" fill="url(#J)"/><use xlink:href="#Z" transform="matrix(.35691 -.040821 .041323 .398544 449.334 114.991)" fill="url(#K)"/><path transform="matrix(1.25 0 0 1.25 185.454 -168.23)" d="M258.702 495.425c12.836-29.103 40.114-80.226 40.695-119.758 0-31.442 94.18-38.95 101.737-7.558s26.74 78.483 38.95 101.156 47.81 94.695 9.884 157.546c-34.157 55.644-137.725 99.666-193-7.557-18.603-37.207-15.285-83.315 1.744-123.83z" fill="url(#L)"/><path transform="matrix(1.38936 -.111074 .102211 1.30214 108.413 -165.938)" d="M242.905 473.815c-11.263 18.967-35.5 69.31 12.137 102.047 51.31 34.82 46.473 97.062-15.607 61.955-56.777-31.79-22.845-137.778-4.5-162.266 12.107-17.214 29.897-38.03 7.98-1.736z" fill="url(#M)"/><path d="M506.095 394.645c-21.83 35.635-74.22 119.766-4.1 163.404 94.46 57.944 67.716 115.89-18.5 63.717-121.386-72.83-14.78-219.52 33.914-275.422 55.555-62.75 10.692 11.36-11.305 48.3z" stroke="#000" stroke-width="1.562"/><path d="M421.48 504.727c0 32.412-29.272 74.516-79.528 74.138-51.828.455-73.95-41.726-73.95-74.138S302.383 446 344.743 446s76.738 26.305 76.738 58.717z" transform="matrix(1.30209 0 0 1.22525 170.042 -153.557)" fill="url(#N)"/><path d="M398.227 412.292c-.612 38.572-23.18 47.67-51.74 47.67s-49.292-5.694-51.74-47.67c0-26.314 23.18-41.542 51.74-41.542s51.74 15.228 51.74 41.542z" transform="matrix(1.1868 0 0 1.06708 210.623 -100.078)" fill="url(#O)"/><g transform="matrix(1.25 0 0 1.25 185.454 -167.505)"><path d="M234.285 456.475c17.716-26.996 55.015-68.364 6.977 5.813-38.95 61.043-14.403 100.273-1.744 111.04 36.527 32.562 34.966 54.35 6.395 37.206-61.625-36.626-48.835-98.248-11.628-154.058z" fill="url(#P)"/><path d="M490.662 467.52c-15.32-31.7-64.134-111.902 2.326-18.603C553.45 533.214 511 591.93 503.452 597.744s-33.137 17.44-25.58-2.907 45.234-58.973 12.79-127.317z" fill="url(#Q)"/><path d="M220.915 716.92c-40.442-21.416-99.252 4.124-77.902-54.066 4.276-13.238-6.375-33.008.58-45.926 8.14-15.698 25.58-12.21 36.045-22.674 10.318-10.89 16.86-29.65 36.044-26.742s31.945 26.46 45.344 55.23c9.883 20.638 44.94 49.664 42.65 72.758-2.696 35.5-43.027 42.2-82.762 21.42z" fill="url(#R)" stroke="#e68c3f" stroke-width="6.25"/></g><use xlink:href="#a" transform="matrix(.598206 .268584 -.239623 .617213 700.568 140.464)" fill="url(#S)"/><path transform="matrix(-1.1685 .423145 .475283 1.16478 728.343 -213.821)" d="M220.274 718.402c-41.327-23.6-99.894 5.605-77.26-55.547 4.736-13.068-6.596-33.552.36-46.47 8.14-15.698 25.8-11.665 36.266-22.13 10.318-10.89 18.827-27.868 38.012-24.96s29.977 24.68 43.376 53.448c9.883 20.638 43.415 48.97 41.124 72.065-2.696 35.5-42.724 45.47-81.877 23.595z" fill="url(#T)" stroke="#e68c3f" stroke-width="6.251"/><path transform="matrix(-.945096 .343745 .424076 .956058 714.328 -64.342)" d="M216.482 675.68c-86.53-57.503-47.308-70.96-36.843-81.425 10.318-10.89 18.827-27.868 38.012-24.96s29.977 24.68 43.376 53.448c9.883 20.638 43.06 48.918 41.124 72.065-2.616 27.1-48.2 5.487-85.67-19.127z" fill="url(#U)"/><path transform="matrix(1.00431 -.052286 -.0174 1.04575 244.191 -28.4653)" d="M216.506 677.07c-86.53-57.503-46.797-73.57-33.946-81.28 15.4-9.942 15.158-30.83 34.343-27.924s30.725 26.107 44.124 54.875c9.883 20.638 43.06 48.918 41.124 72.065-2.616 27.1-48.166 6.878-85.645-17.736z" fill="url(#V)"/><path d="M824.916 557.147c-6.694 11.673-34.3 30.196-52.68 25.368-18.766-4.735-27.217-31.15-23.542-51.14 3.412-22.512 23.54-23.63 48.785-12.526 27.14 12.292 35.347 22.827 27.438 38.297z"/><use xlink:href="#a" transform="matrix(.351231 .149463 -.128856 .343469 724.522 318.291)" fill="url(#W)"/><g stroke="#e68c3f"><path transform="matrix(1.25 0 0 1.25 185.454 -167.505)" d="M309.954 338.73c7.147-6.77 24.81-27.066 57.96-5.755 6.162 4 11.162 4.377 23.02 9.455 23.726 9.75 12.382 33.26-12.744 41.108-10.758 3.49-20.536 16.556-40.13 15.44-16.734-.977-21.12-11.874-31.398-17.906-18.27-10.31-20.965-24.254-11.1-31.653l14.39-10.688z" fill="url(#X)" stroke-width="3.75"/><path d="M674.518 279.55c-12.354.726-39.24 27.614-67.582 27.614s-45.055-26.16-49.415-26.16" fill="none" stroke-width="3.125"/></g><path transform="matrix(.627885 0 0 .595666 392.366 51.8173)" d="M309.954 338.73c7.147-6.77 29.69-25.348 59.588-6.328l22.478 13.464c19.162 11.748 9.67 28.678-13.286 39.4-10.418 4.495-27.593 14.415-40.67 13.72-14.533-1.408-23.935-11.4-33.567-17.906-17.67-12.303-16.597-22.237-8.39-30.508 6.205-5.68 13.183-11.204 13.847-11.833z" fill="url(#Y)"/></g></symbol>
<symbol id="nodejs" width="589.83" height="361.24" version="1.2" viewBox="0 0 442.37 270.929"><defs><clipPath id="a"><path d="M239.03 226.605l-42.13 24.317c-1.578.91-2.546 2.59-2.546 4.406v48.668c0 1.817.968 3.496 2.546 4.406l42.133 24.336c1.575.907 3.517.907 5.09 0l42.126-24.336c1.57-.91 2.54-2.59 2.54-4.406v-48.668c0-1.816-.97-3.496-2.55-4.406l-42.12-24.317c-.79-.453-1.67-.68-2.55-.68-.88 0-1.76.227-2.55.68"/></clipPath><linearGradient id="b" x1="-.348" x2="1.251" gradientTransform="rotate(116.11 53.1 202.97) scale(86.48)" gradientUnits="userSpaceOnUse"><stop stop-color="#3E863D" offset=".3"/><stop stop-color="#55934F" offset=".5"/><stop stop-color="#5AAD45" offset=".8"/></linearGradient><clipPath id="c"><path d="M195.398 307.086c.403.523.907.976 1.5 1.316l36.14 20.875 6.02 3.46c.9.52 1.926.74 2.934.665.336-.027.672-.09 1-.183l44.434-81.36c-.34-.37-.738-.68-1.184-.94l-27.586-15.93-14.582-8.39c-.414-.24-.863-.41-1.32-.53zm0 0"/></clipPath><linearGradient id="d" x1="-.456" x2=".582" gradientTransform="rotate(-36.46 550.85 -214.34) scale(132.8)" gradientUnits="userSpaceOnUse"><stop stop-color="#3E863D" offset=".57"/><stop stop-color="#619857" offset=".72"/><stop stop-color="#76AC64" offset="1"/></linearGradient><clipPath id="e"><path d="M241.066 225.953c-.707.07-1.398.29-2.035.652l-42.01 24.247 45.3 82.51c.63-.09 1.25-.3 1.81-.624l42.13-24.336c1.3-.754 2.19-2.03 2.46-3.476l-46.18-78.89c-.34-.067-.68-.102-1.03-.102-.14 0-.28.007-.42.02"/></clipPath><linearGradient id="f" x1=".043" x2=".984" gradientTransform="translate(192.86 279.65) scale(97.417)" gradientUnits="userSpaceOnUse"><stop stop-color="#6BBF47" offset=".16"/><stop stop-color="#79B461" offset=".38"/><stop stop-color="#75AC64" offset=".47"/><stop stop-color="#659E5A" offset=".7"/><stop stop-color="#3E863D" offset=".9"/></linearGradient></defs><path d="M218.647 270.93c-1.46 0-2.91-.383-4.19-1.12l-13.337-7.896c-1.992-1.114-1.02-1.508-.363-1.735 2.656-.93 3.195-1.14 6.03-2.75.298-.17.688-.11.993.07l10.246 6.08c.37.2.895.2 1.238 0l39.95-23.06c.37-.21.61-.64.61-1.08v-46.1c0-.46-.24-.87-.618-1.1l-39.934-23.04c-.37-.22-.86-.22-1.23 0l-39.926 23.04c-.387.22-.633.65-.633 1.09v46.1c0 .44.24.86.62 1.07l10.94 6.32c5.94 2.97 9.57-.53 9.57-4.05v-45.5c0-.65.51-1.15 1.16-1.15h5.06c.63 0 1.15.5 1.15 1.15v45.52c0 7.92-4.32 12.47-11.83 12.47-2.31 0-4.13 0-9.21-2.5l-10.48-6.04c-2.59-1.5-4.19-4.3-4.19-7.29v-46.1c0-3 1.6-5.8 4.19-7.28l39.99-23.07c2.53-1.43 5.89-1.43 8.4 0l39.94 23.08c2.58 1.49 4.19 4.28 4.19 7.28v46.1c0 2.99-1.61 5.78-4.19 7.28l-39.94 23.07c-1.28.74-2.73 1.12-4.21 1.12" fill="#689f63"/><path d="M230.987 239.164c-17.48 0-21.145-8.024-21.145-14.754 0-.64.516-1.15 1.157-1.15h5.16c.57 0 1.05.415 1.14.978.78 5.258 3.1 7.91 13.67 7.91 8.42 0 12-1.902 12-6.367 0-2.57-1.02-4.48-14.1-5.76-10.94-1.08-17.7-3.49-17.7-12.24 0-8.06 6.8-12.86 18.19-12.86 12.79 0 19.13 4.44 19.93 13.98.03.33-.09.65-.31.89-.22.23-.53.37-.85.37h-5.19c-.54 0-1.01-.38-1.12-.9-1.25-5.53-4.27-7.3-12.48-7.3-9.19 0-10.26 3.2-10.26 5.6 0 2.91 1.26 3.76 13.66 5.4 12.28 1.63 18.11 3.93 18.11 12.56 0 8.7-7.26 13.69-19.92 13.69m48.66-48.89h1.34c1.1 0 1.31-.77 1.31-1.22 0-1.18-.81-1.18-1.26-1.18h-1.38zm-1.63-3.78h2.97c1.02 0 3.02 0 3.02 2.28 0 1.59-1.02 1.92-1.63 2.12 1.19.08 1.27.86 1.43 1.96.08.69.21 1.88.45 2.28h-1.83c-.05-.4-.33-2.6-.33-2.72-.12-.49-.29-.73-.9-.73h-1.51v3.46h-1.67zm-3.57 4.3c0 3.58 2.89 6.48 6.44 6.48 3.58 0 6.47-2.96 6.47-6.48 0-3.59-2.93-6.44-6.48-6.44-3.5 0-6.44 2.81-6.44 6.43m14.16.03c0 4.24-3.47 7.7-7.7 7.7-4.2 0-7.7-3.42-7.7-7.7 0-4.36 3.58-7.7 7.7-7.7 4.15 0 7.69 3.35 7.69 7.7" fill="#689f63"/><path d="M94.936 90.55c0-1.84-.97-3.53-2.558-4.445l-42.356-24.37c-.715-.42-1.516-.64-2.328-.67h-.438c-.812.03-1.613.25-2.34.67L2.562 86.105C.984 87.025 0 88.715 0 90.555l.093 65.64c0 .91.47 1.76 1.27 2.21.78.48 1.76.48 2.54 0l25.18-14.42c1.59-.946 2.56-2.618 2.56-4.44V108.88c0-1.83.97-3.52 2.555-4.43l10.72-6.174c.796-.46 1.67-.688 2.56-.688.876 0 1.77.226 2.544.687l10.715 6.172c1.586.91 2.56 2.6 2.56 4.43v30.663c0 1.82.983 3.5 2.565 4.44l25.164 14.41c.79.47 1.773.47 2.56 0 .776-.45 1.268-1.3 1.268-2.21zm199.868 34.176c0 .457-.243.88-.64 1.106l-14.548 8.386c-.395.227-.883.227-1.277 0l-14.55-8.386c-.4-.227-.64-.65-.64-1.106V107.93c0-.458.24-.88.63-1.11l14.54-8.4c.4-.23.89-.23 1.29 0l14.55 8.4c.4.23.64.652.64 1.11zM298.734.324c-.794-.442-1.76-.43-2.544.027-.78.46-1.262 1.3-1.262 2.21v65c0 .64-.34 1.23-.894 1.55-.55.32-1.235.32-1.79 0L281.634 63c-1.58-.914-3.526-.914-5.112 0l-42.37 24.453c-1.583.91-2.56 2.6-2.56 4.42v48.92c0 1.83.977 3.51 2.56 4.43l42.37 24.47c1.582.91 3.53.91 5.117 0l42.37-24.48c1.58-.92 2.56-2.6 2.56-4.43V18.863c0-1.856-1.01-3.563-2.63-4.47zm141.093 107.164c1.574-.914 2.543-2.602 2.543-4.422V91.21c0-1.824-.97-3.507-2.547-4.425l-42.1-24.44c-1.59-.92-3.54-.92-5.13 0l-42.36 24.45c-1.59.92-2.56 2.6-2.56 4.43v48.9c0 1.84.99 3.54 2.58 4.45l42.09 23.99c1.55.89 3.45.9 5.02.03l25.46-14.15c.8-.45 1.31-1.3 1.31-2.22 0-.92-.49-1.78-1.29-2.23l-42.62-24.46c-.8-.45-1.29-1.3-1.29-2.21v-15.34c0-.916.48-1.76 1.28-2.216l13.26-7.65c.79-.46 1.76-.46 2.55 0l13.27 7.65c.79.45 1.28 1.3 1.28 2.21v12.06c0 .91.49 1.76 1.28 2.22.79.45 1.77.45 2.56-.01zm0 0" fill="#333" fill-rule="evenodd"/><path d="M394.538 105.2c.3-.177.676-.177.98 0l8.13 4.69c.304.176.49.5.49.85v9.39c0 .35-.186.674-.49.85l-8.13 4.69c-.304.177-.68.177-.98 0l-8.125-4.69c-.31-.176-.5-.5-.5-.85v-9.39c0-.35.18-.674.49-.85zm0 0" fill="#689f63" fill-rule="evenodd"/><g transform="translate(-78.306 -164.02)" clip-path="url(#a)"><path d="m331.36 246.79l-118.72-58.19-60.87 124.17 118.71 58.193z" fill="url(#b)"/></g><g transform="translate(-78.306 -164.02)" clip-path="url(#c)"><path d="m144.07 264l83.825 113.45 110.86-81.906-83.83-113.45z" fill="url(#d)"/></g><g transform="translate(-78.306 -164.02)" clip-path="url(#e)"><path d="m197.02 225.93v107.43h91.683v-107.43z" fill="url(#f)"/></g></symbol>
<symbol id="perl" viewBox="0 0 283 283"><ellipse cx="137.3" cy="139.1" rx="126.51" ry="131.91" fill="#fff"/><path d="M118.7 277.4c-29.765-5.266-55.292-18.855-76.387-40.662-17.94-18.547-30.287-41.903-35.908-67.932-2.427-11.24-2.427-43.404 0-54.644 3.798-17.59 11.176-35.066 21.234-50.3C34.298 53.777 53.795 34.28 63.88 27.62c15.233-10.058 32.7-17.435 50.3-21.234 11.24-2.427 43.404-2.427 54.644 0 27.406 5.92 50.178 18.293 69.83 37.945s32.026 42.424 37.945 69.83c2.427 11.24 2.427 43.404 0 54.644-5.918 27.406-18.292 50.178-37.945 69.83-19.342 19.342-41.823 31.687-68.774 37.765-9.558 2.156-41.157 2.773-51.18 1zm24.742-27.328c0-8.975-.13-9.622-1.94-9.622-1.796 0-1.934.62-1.858 8.342.1 9.12.73 11.924 2.587 11.306.86-.287 1.212-3.193 1.212-10.026zm-14.457 3.09c2.554-2.554 3.3-4.103 3.3-6.863 0-2.814-.343-3.498-1.628-3.25-.895.173-1.97 1.624-2.388 3.225s-2.135 4.075-3.816 5.497c-3.027 2.562-3.145 4.69-.26 4.69.822 0 2.98-1.484 4.794-3.3zm31.972 2.247c.358-.58-.725-2.216-2.406-3.638s-3.398-3.896-3.816-5.497-1.493-3.052-2.388-3.225c-1.286-.248-1.628.436-1.628 3.25 0 5.582 8.013 12.71 10.238 9.1zM116.76 237.98c0-.558-1.358-1.76-3.017-2.668-10.818-5.927-23.502-15.352-30.555-22.705-13.765-14.35-19.963-28.642-20.112-46.38-.1-11.856 1.43-18.036 7.2-29.108 5.58-10.705 12.05-18.785 29.84-37.275 19.87-20.65 24.444-26.1 27.898-33.232 2.453-5.065 2.78-6.912 3.12-17.623.423-13.298-.386-22.48-1.982-22.48-.726 0-.864 3.45-.45 11.2 1.33 24.805-3.277 32.502-31.862 53.238-19.686 14.28-28.72 22.037-35.543 30.512-9.666 12.008-13.943 22.402-15.015 36.49-2.584 33.95 18.93 63.4 56.89 77.843 8.375 3.19 13.584 4.028 13.584 2.19zm65.67-2.755c13.05-5.434 22.974-12.008 32.326-21.41 14.26-14.34 20.2-27.744 21.088-47.588.778-17.402-3-28.915-13.77-41.952-7.38-8.933-15.322-15.322-36.74-29.555-28.82-19.15-35.585-26.776-35.585-40.11 0-3.546.64-8.57 1.42-11.165 1.33-4.423 1.296-7.473-.045-3.977-1.27 3.31-4.164 1.786-5.726-3.014l-1.5-4.61.568 4.366c2.015 15.493 2.267 21.985 1.376 35.546-1.204 18.335-3.457 30.868-9.645 53.658-6.14 22.617-7.247 30.815-6.484 48.087.645 14.602 2.686 25.524 7.434 39.78 4.407 13.233 5.228 14.237 13.334 16.3 4.46 1.14 8.68 3.067 12.043 5.496 3.153 2.278 6.314 3.76 8.087 3.793 1.6.03 6.92-1.617 11.82-3.657zm-2.927-6.58c-1.212-1.212-.648-2.242 4.088-7.47 14.913-16.467 21.596-33.472 21.787-55.434.13-14.96-3.175-24.873-13.26-39.78-4.562-6.742-20.612-23.554-28.376-29.723-5.698-4.528-11.548-12.242-12.593-16.607-1.058-4.42 1.905-3.252 5.342 2.104 1.684 2.625 5.332 6.478 8.106 8.564l18.233 13.597c24.96 18.555 36.066 34.374 38.565 54.925 1.446 11.892-.852 24.18-6.654 35.6-6.013 11.824-16.977 24.702-26.37 30.974-5.777 3.858-7.6 4.528-8.866 3.262zm-48.855 1.252c.282-.734-2.216-5.428-5.55-10.43-8.83-13.246-12.674-20.557-16.258-30.926-3.023-8.747-3.187-9.936-3.2-23.286-.035-20.185 2.15-26.584 18.16-53.173 15.098-25.074 17.14-34.78 15.44-73.357-.61-13.826-1.3-25.33-1.537-25.566-1.595-1.595-1.93 2.502-1.344 16.408 1.168 27.685-.618 43.1-6.456 55.76-3.975 8.614-8.42 15.144-20.387 29.96-16.658 20.623-21.36 31.56-21.273 49.483.06 12.285 1.725 19.84 6.69 30.35 5.375 11.38 15.265 22.866 27.66 32.12 5.707 4.26 7.256 4.77 8.067 2.658z" fill="#212178"/></symbol>
<symbol id="php" width="185" height="224" viewBox="0 0 185 223.666"><path fill-opacity="0" d="M0 0h185v223.67H0z"/><defs><clipPath id="A"><path d="M10.65 154.75h163.7V68.912H10.65v85.838z"/></clipPath></defs><g clip-path="url(#A)"><path d="M92.5 151.4c43.356 0 78.504-17.813 78.504-39.785S135.856 71.83 92.5 71.83s-78.504 17.813-78.504 39.784S49.144 151.4 92.5 151.4" fill="#617cbe"/><path d="M108.4 124.47l3.895-20.04c.878-4.523.148-7.898-2.172-10.03-2.247-2.063-6.06-3.066-11.66-3.066H91.72l1.93-9.93c.073-.374-.025-.76-.268-1.055s-.604-.465-.985-.465H83.09a1.28 1.28 0 0 0-1.253 1.033L77.7 102.193c-.376-2.394-1.302-4.452-2.785-6.15-2.73-3.125-7.05-4.7-12.837-4.7h-18.04c-.6 0-1.137.433-1.253 1.033l-8.37 43.067a1.28 1.28 0 0 0 1.253 1.52h9.382a1.28 1.28 0 0 0 1.253-1.033l2.025-10.417H55.3c3.665 0 6.743-.397 9.147-1.18 2.458-.8 4.72-2.154 6.714-4.02 1.6-1.48 2.942-3.137 3.966-4.925l-1.672 8.606a1.27 1.27 0 0 0 .268 1.055 1.28 1.28 0 0 0 .985.465h9.308a1.28 1.28 0 0 0 1.253-1.033l4.594-23.64h6.386c2.722 0 3.52.542 3.735.775.197.213.606.962.148 3.323l-3.703 19.055a1.27 1.27 0 0 0 .268 1.055c.242.294.604.465.985.465h9.455c.6 0 1.137-.433 1.253-1.033zM65.248 107.9c-.584 3.004-1.686 5.148-3.274 6.37-1.614 1.243-4.195 1.873-7.673 1.873h-4.158l3.007-15.472h5.376c3.95 0 5.54.845 6.18 1.553.886.98 1.074 2.945.543 5.676m82.95-11.867c-2.73-3.125-7.05-4.7-12.836-4.7h-18.04a1.28 1.28 0 0 0-1.253 1.033l-8.37 43.067a1.27 1.27 0 0 0 .268 1.055c.242.294.603.465.985.465h9.38c.6 0 1.137-.433 1.253-1.033l2.025-10.417h6.983c3.666 0 6.743-.397 9.148-1.18 2.458-.8 4.72-2.154 6.713-4.02 1.663-1.528 3.032-3.244 4.07-5.1s1.78-3.92 2.212-6.147c1.067-5.486.213-9.865-2.537-13.013zm-9.73 11.868c-.585 3.004-1.686 5.148-3.274 6.37-1.614 1.243-4.196 1.873-7.673 1.873h-4.158l3.007-15.472h5.375c3.95 0 5.54.845 6.18 1.553.885.98 1.073 2.945.543 5.676" fill="#fff"/><path d="M58.528 99.406c3.564 0 5.94.658 7.127 1.974s1.47 3.574.85 6.775c-.65 3.333-1.898 5.713-3.75 7.138s-4.67 2.137-8.45 2.137H48.6l3.5-18.024h6.428zm-22.86 36.27h9.382l2.225-11.45h8.036c3.546 0 6.463-.372 8.753-1.118s4.37-1.993 6.244-3.747c1.572-1.444 2.844-3.038 3.818-4.78s1.665-3.665 2.073-5.768c.993-5.105.244-9.082-2.245-11.93S67.508 92.6 62.08 92.6H44.04l-8.37 43.067M83.1 81.16h9.308L90.173 92.6h8.292c5.217 0 8.816.9 10.797 2.73s2.574 4.77 1.782 8.847l-3.895 20.04h-9.455l3.702-19.056c.422-2.167.267-3.646-.465-4.434s-2.288-1.183-4.67-1.183h-7.44l-4.794 24.673H74.72L83.1 81.16m48.65 18.246c3.564 0 5.94.658 7.128 1.974s1.47 3.574.848 6.775c-.65 3.333-1.897 5.713-3.75 7.138s-4.67 2.137-8.45 2.137h-5.707l3.503-18.024h6.428zm-22.858 36.27h9.382l2.225-11.45h8.036c3.545 0 6.462-.372 8.752-1.118s4.37-1.993 6.245-3.747c1.572-1.444 2.844-3.038 3.818-4.78s1.664-3.665 2.073-5.768c.993-5.105.243-9.082-2.245-11.93S140.73 92.6 135.303 92.6h-18.04l-8.37 43.067" fill="#08090d"/></g></symbol>
<symbol id="sass" viewBox="0 0 547.8 410.6"><path d="M471.4 236c-19.1.1-35.7 4.7-49.6 11.5-5.1-10.1-10.2-19.1-11.1-25.7-1-7.7-2.2-12.4-1-21.6s6.6-22.3 6.5-23.3-1.2-5.7-12.2-5.8-20.5 2.1-21.6 5-3.2 9.5-4.6 16.3c-1.9 10-22 45.7-33.5 64.4-3.7-7.3-6.9-13.7-7.6-18.8-1-7.7-2.2-12.4-1-21.6s6.6-22.3 6.5-23.3-1.2-5.7-12.2-5.8-20.5 2.1-21.6 5-2.3 9.7-4.6 16.3-29 66.2-36 81.6c-3.6 7.9-6.7 14.2-8.9 18.5 0 0-.1.3-.4.8l-3 5.7v.1c-1.5 2.7-3.1 5.2-3.9 5.2-.6 0-1.7-7.2.2-17 4-20.7 13.5-52.9 13.4-54 0-.6 1.8-6.2-6.2-9.1-7.8-2.9-10.6 1.9-11.3 1.9s-1.2 1.7-1.2 1.7 8.7-36.2-16.6-36.2c-15.8 0-37.6 17.3-48.4 32.9l-36.8 20.1-17.7 9.7c-.4-.4-.8-.9-1.2-1.3-30.6-32.7-87.2-55.8-84.8-99.7.9-16 6.4-58 108.7-109 84.2-41.5 151.2-30 162.8-4.5 16.6 36.4-35.9 104-122.9 113.8-33.2 3.7-50.6-9.1-55-13.9-4.6-5-5.3-5.3-7-4.3-2.8 1.5-1 6 0 8.6 2.6 6.8 13.3 18.8 31.4 24.7 16 5.2 54.9 8.1 102-10.1 52.7-20.4 93.9-77.1 81.8-124.6C330.7 2 250.7-13.9 175 13 130 29 81.2 54.2 46.1 87 4.4 126-2.2 159.9.5 174.1c9.7 50.4 79.2 83.2 107 107.5-1.4.8-2.7 1.5-3.8 2.1-13.9 6.9-66.9 34.6-80.1 63.9-15 33.2 2.4 57 13.9 60.2 35.7 9.9 72.4-7.9 92.1-37.3s17.3-67.6 8.2-85.1c-.1-.2-.2-.4-.4-.6l10.9-6.4c7.1-4.2 14.1-8.1 20.1-11.3-3.4 9.3-5.9 20.4-7.1 36.4-1.5 18.8 6.2 43.2 16.3 52.8 4.5 4.2 9.8 4.3 13.2 4.3 11.8 0 17.1-9.8 23-21.4 7.2-14.2 13.7-30.7 13.7-30.7s-8.1 44.6 13.9 44.6c8 0 16.1-10.4 19.7-15.7v.1s.2-.3.6-1l1.3-2.1v-.2c3.2-5.6 10.4-18.3 21.1-39.4 13.8-27.2 27.1-61.2 27.1-61.2s1.2 8.3 5.3 22.1c2.4 8.1 7.4 17 11.4 25.6-3.2 4.5-5.2 7-5.2 7l.1.1c-2.6 3.4-5.4 7.1-8.5 10.7-10.9 13-23.9 27.9-25.7 32.2-2.1 5.1-1.6 8.8 2.4 11.8 2.9 2.2 8.1 2.5 13.4 2.2 9.8-.7 16.7-3.1 20.1-4.6 5.3-1.9 11.5-4.8 17.3-9.1 10.7-7.9 17.2-19.2 16.6-34.1-.3-8.2-3-16.4-6.3-24.1 1-1.4 1.9-2.8 2.9-4.2 16.9-24.7 30-51.8 30-51.8s1.2 8.3 5.3 22.1c2 7 6.1 14.6 9.7 22-15.9 12.9-25.7 27.9-29.2 37.7-6.3 18.2-1.4 26.4 7.9 28.3 4.2.9 10.2-1.1 14.6-3 5.6-1.8 12.2-4.9 18.5-9.5 10.7-7.9 21-18.9 20.4-33.8-.3-6.8-2.1-13.5-4.6-20 13.5-5.6 30.9-8.7 53.1-6.1 47.6 5.6 57 35.3 55.2 47.8s-11.8 19.3-15.1 21.4-4.4 2.8-4.1 4.3c.4 2.2 2 2.1 4.8 1.7 3.9-.7 25-10.1 25.9-33.1 1.5-29.4-26.5-61.5-76-61.2zM104.2 359.8C88.4 377 66.4 383.5 56.9 378c-10.2-5.9-6.2-31.3 13.2-49.5 11.8-11.1 27-21.4 37.1-27.7l9.8-5.9c.7-.4 1.1-.6 1.1-.6l2.4-1.5c7.1 26 .3 48.9-16.3 67zm115-78.2c-5.5 13.4-17 47.7-24 45.8-6-1.6-9.7-27.6-1.2-53.3 4.3-12.9 13.4-28.3 18.7-34.3 8.6-9.6 18.1-12.8 20.4-8.9 2.9 5.1-10.5 42.3-13.9 50.7zm94.9 45.4c-2.3 1.2-4.5 2-5.5 1.4-.7-.4 1-2 1-2s11.9-12.8 16.6-18.6l9.3-11.9v1.3c0 15.3-14.8 25.6-21.4 29.8zm73.2-16.7c-1.7-1.2-1.4-5.2 4.3-17.7 2.2-4.9 7.4-13.1 16.3-21 1 3.2 1.7 6.3 1.6 9.2-.1 19.3-13.9 26.5-22.2 29.5z" fill="#CD6799"/></symbol>
<symbol id="scrum" viewBox="0 0 350 250"><style><![CDATA[.A{fill:#404040;fill-opacity:1;fill-rule:nonzero;stroke:none}]]></style><path class="A" d="M91.9 105.17a3.68 3.68 0 1 1 4.17 3.11 3.68 3.68 0 0 1-4.17-3.11m-9.54-.37a3.39 3.39 0 1 1 3.84 2.87 3.38 3.38 0 0 1-3.84-2.87m-8.63 4.12a3.1 3.1 0 1 1 3.51 2.62 3.09 3.09 0 0 1-3.51-2.62m31.2 10.43a4.16 4.16 0 1 1 4.7 3.51 4.16 4.16 0 0 1-4.7-3.51m-4.93-9.1a3.95 3.95 0 1 1 4.47 3.34 3.95 3.95 0 0 1-4.47-3.34m-31.53 6.1a2.76 2.76 0 1 1 3.13 2.34 2.76 2.76 0 0 1-3.13-2.34M67 125.2a2.56 2.56 0 1 1 2.9 2.17 2.56 2.56 0 0 1-2.9-2.17m2.85 8.36a2.17 2.17 0 1 1 2.46 1.82 2.16 2.16 0 0 1-2.46-1.82m5.83 6.98a1.87 1.87 0 1 1 2.13 1.58 1.87 1.87 0 0 1-2.13-1.58m7.62 3.28a1.77 1.77 0 1 1 2 1.5 1.78 1.78 0 0 1-2-1.5m45.16-6.92H133l-.54 2.94c-.6 3.32 3.15 4.45 6.5 4.45 4.57 0 7.82-2.84 7.82-6.9 0-7.93-15.2-4.93-15.2-16.23 0-7.34 6.3-11.2 13.23-11.2 4.1 0 10.48 1.77 9.55 6.64l-.8 4.07H149l.44-2.62c.5-2.57-2.85-3.37-5.3-3.37-4.18 0-7.53 2.35-7.53 6.15 0 7.56 15.2 4.5 15.2 16.24 0 7.5-6.25 12-13.53 12-4.48 0-11.6-2-10.53-8.4m44.75-20c3.6 0 9.54 1.56 8.76 6.38l-.6 3.1h-4.23l.35-1.83c.34-2.2-2.42-3.16-4.78-3.16-5.4 0-10.48 5.36-10.48 11.63 0 4.7 2.8 7.77 7.43 7.77a13.24 13.24 0 0 0 8.51-3.54l1.38 4a14.94 14.94 0 0 1-10.33 4c-7.28 0-11.85-4.83-11.85-11.9 0-8.8 7-16.5 15.84-16.5m16.9 5.88c.1-.64-.05-1.17-.9-1.17h-3.1l.8-4h5.6c1.92 0 2.65.75 2.65 2.3a26.18 26.18 0 0 1-.88 4.6h.1c1.68-3.86 5-7.23 9-7.23a8.85 8.85 0 0 1 1.48.11l-.94 5.14a5.73 5.73 0 0 0-1.33-.16c-4.57 0-8.7 6.05-9.8 12.27l-1.77 10.07h-4.82m23.78-9.9l2.3-13.18h-4.13l.74-4h8.9l-2.86 16.12a15.81 15.81 0 0 0-.39 3.11c0 2.35.94 3.8 3.74 3.8 5 0 9-5.57 9.9-10.7l1.47-8.3h-4.13l.74-4h8.9L231 140.5a10.21 10.21 0 0 0-.15 1.66c0 1.93 1 2.36 2.2 2.36a5.39 5.39 0 0 0 1.18-.11l-.73 4s-1.1.1-2.27.1c-3.35 0-5.3-1.87-5-5.94h-.1c-1.62 2.78-5.07 6.48-10.28 6.48-3.8 0-7-2-7-7.13a17.85 17.85 0 0 1 .34-3.43m35.27-12.03c.1-.7-.1-1.13-.9-1.13h-3.1l.73-4h5.6c2 0 2.7.8 2.7 2.26a17.23 17.23 0 0 1-.74 3.69h.1c1.18-2.4 5.2-6.6 9.9-6.6 4 0 6 2.3 6.24 6.6h.1c1.92-3.7 5.66-6.6 9.8-6.6s6.84 2.57 6.84 7.18c0 3.22-2.17 12.16-2.17 14.3s1 2.36 2.2 2.36a6.23 6.23 0 0 0 1.18-.11l-.73 4a21 21 0 0 1-2.12.11c-2.2 0-5.46-.48-5.46-5.1 0-2.52 2.1-11.57 2.1-14.14 0-2.35-.78-3.9-3.64-3.9-4.62 0-8.17 5.47-9.05 10.67l-2.22 12.37h-4.77l2.9-16.24a24.88 24.88 0 0 0 .34-3.05c0-2.2-.78-3.75-3.54-3.75-4.77 0-8.36 5.58-9.35 10.93l-2.16 12.1h-4.78"/></symbol>
<symbol id="sql" xmlns="http://www.w3.org/2000/svg" width="588.6" height="588.6"><path d="M359.036 537.786l2.342.115h178.2c20.84 0 37.8-16.96 37.8-37.8V87c0-20.838-16.96-37.8-37.8-37.8h-178.2c-.786 0-1.57.07-2.342.114V0L11.222 46.42v494.56l347.814 47.62v-50.814zm0-466.753c.77-.113 1.54-.232 2.342-.232h178.2c8.933 0 16.2 7.267 16.2 16.2v413.1c0 8.934-7.267 16.2-16.2 16.2h-178.2c-.797 0-1.57-.127-2.342-.242V71.033zM67.37 329.626c-11.75-.3-23.224-3.88-28.917-7.45l4.63-20.45c6.17 3.527 15.723 7.13 25.67 7.3 10.8.2 16.577-4.535 16.577-11.86 0-6.982-5-11-17.495-15.88-17.064-6.455-28.033-16.57-28.033-32.537 0-18.736 14.462-33.452 38.833-34.096 11.852-.32 20.67 2.133 27 5.002l-5.4 20.735a47.14 47.14 0 0 0-22.088-4.989c-10.188.166-15.082 5.194-15.082 10.956 0 7.08 5.822 10.17 19.28 15.56 18.668 7.288 27.567 17.705 27.567 33.694.006 19.006-13.8 34.783-42.564 34.018zm156.558 22.94c-16.82-5.5-30.663-11.02-46.013-18.082-2.545-1.107-5.255-1.698-7.944-1.946-25.315-2.4-48.463-21.932-48.463-59.144 0-34.167 20.838-60.428 54.366-61.314 35.42-.934 55.305 26.24 55.305 58.898 0 27.16-12.538 46.093-28.073 52.8v.706c9.05 2.843 19.24 5.2 28.614 7.394l-7.792 20.687zm103.658-17.845l-78.467-2.03V212.12l27.918-.72v98.838l50.55.822v23.662zM175.204 233.06c-17.463.303-27.4 17.922-27.4 39.5-.177 21.9 10.114 38.857 27.232 39.164 17.56.306 27.917-16.533 27.917-39.675 0-21.564-10.008-39.283-27.738-38.98zm272.564 159.22c41.913 0 74.714-14.977 74.714-34.093v-21.5c0-3.06-.886-6.165-2.67-9.207l-.073-.122c1.74-2.926 2.742-6.006 2.742-9.218v-21.5c0-3.06-.886-6.165-2.67-9.216l-.23-.388c1.846-3.014 2.9-6.188 2.9-9.5v-21.508c0-2.9-.807-5.875-2.415-8.807l-.185-.34c.475-1.308.807-2.647.807-4.065 0-17.384-37.568-26.768-72.92-26.768-35.322 0-72.88 9.384-72.88 26.768 0 1.418.332 2.763.812 4.07l-.2.34c-1.614 2.932-2.415 5.896-2.415 8.807v21.508c0 3.312 1.044 6.5 2.9 9.497l-.243.412c-1.76 3.056-2.646 6.152-2.646 9.2v21.505c0 3.206.985 6.28 2.73 9.207l-.085.138c-1.76 3.048-2.646 6.153-2.646 9.196v21.516c-.002 19.1 32.798 34.088 74.67 34.088zM381.1 259.6c11.98 10.156 39.772 15.417 66.678 15.417 26.947 0 54.717-5.266 66.714-15.423V277.5c0 12.34-27.38 26.1-66.714 26.1-39.298 0-66.678-13.75-66.678-26.1v-17.9zm0 38.296c12.266 11.227 37.494 18.398 66.678 18.398 29.225 0 54.453-7.172 66.714-18.4v20.244c0 12.34-27.38 26.093-66.714 26.093-39.298 0-66.678-13.753-66.678-26.093v-20.233zm0 40.057c12.266 11.232 37.494 18.404 66.678 18.404 29.225 0 54.453-7.172 66.714-18.4v20.245c0 12.34-27.38 26.088-66.714 26.088-39.298 0-66.678-13.748-66.678-26.088v-20.24z"/><script/></symbol>
<symbol id="vuejs" xmlns="http://www.w3.org/2000/svg" viewBox="0 0 261.76 226.69" xmlns:v="https://vecta.io/nano"><g transform="matrix(1.3333 0 0 -1.3333 -76.311 313.34)"><path d="M178.06 235l-22.67-39.264L132.722 235H57.23L155.39 65 253.55 235z" fill="#41b883"/><path d="M178.06 235l-22.67-39.264L132.722 235H96.495l58.896-102 58.896 102z" fill="#34495e"/></g></symbol>
</defs>
</svg>
