<svg xmlns="http://www.w3.org/2000/svg" width="588.6" height="588.6"><path d="M359.036 537.786l2.342.115h178.2c20.84 0 37.8-16.96 37.8-37.8V87c0-20.838-16.96-37.8-37.8-37.8h-178.2c-.786 0-1.57.07-2.342.114V0L11.222 46.42v494.56l347.814 47.62v-50.814zm0-466.753c.77-.113 1.54-.232 2.342-.232h178.2c8.933 0 16.2 7.267 16.2 16.2v413.1c0 8.934-7.267 16.2-16.2 16.2h-178.2c-.797 0-1.57-.127-2.342-.242V71.033zM67.37 329.626c-11.75-.3-23.224-3.88-28.917-7.45l4.63-20.45c6.17 3.527 15.723 7.13 25.67 7.3 10.8.2 16.577-4.535 16.577-11.86 0-6.982-5-11-17.495-15.88-17.064-6.455-28.033-16.57-28.033-32.537 0-18.736 14.462-33.452 38.833-34.096 11.852-.32 20.67 2.133 27 5.002l-5.4 20.735a47.14 47.14 0 0 0-22.088-4.989c-10.188.166-15.082 5.194-15.082 10.956 0 7.08 5.822 10.17 19.28 15.56 18.668 7.288 27.567 17.705 27.567 33.694.006 19.006-13.8 34.783-42.564 34.018zm156.558 22.94c-16.82-5.5-30.663-11.02-46.013-18.082-2.545-1.107-5.255-1.698-7.944-1.946-25.315-2.4-48.463-21.932-48.463-59.144 0-34.167 20.838-60.428 54.366-61.314 35.42-.934 55.305 26.24 55.305 58.898 0 27.16-12.538 46.093-28.073 52.8v.706c9.05 2.843 19.24 5.2 28.614 7.394l-7.792 20.687zm103.658-17.845l-78.467-2.03V212.12l27.918-.72v98.838l50.55.822v23.662zM175.204 233.06c-17.463.303-27.4 17.922-27.4 39.5-.177 21.9 10.114 38.857 27.232 39.164 17.56.306 27.917-16.533 27.917-39.675 0-21.564-10.008-39.283-27.738-38.98zm272.564 159.22c41.913 0 74.714-14.977 74.714-34.093v-21.5c0-3.06-.886-6.165-2.67-9.207l-.073-.122c1.74-2.926 2.742-6.006 2.742-9.218v-21.5c0-3.06-.886-6.165-2.67-9.216l-.23-.388c1.846-3.014 2.9-6.188 2.9-9.5v-21.508c0-2.9-.807-5.875-2.415-8.807l-.185-.34c.475-1.308.807-2.647.807-4.065 0-17.384-37.568-26.768-72.92-26.768-35.322 0-72.88 9.384-72.88 26.768 0 1.418.332 2.763.812 4.07l-.2.34c-1.614 2.932-2.415 5.896-2.415 8.807v21.508c0 3.312 1.044 6.5 2.9 9.497l-.243.412c-1.76 3.056-2.646 6.152-2.646 9.2v21.505c0 3.206.985 6.28 2.73 9.207l-.085.138c-1.76 3.048-2.646 6.153-2.646 9.196v21.516c-.002 19.1 32.798 34.088 74.67 34.088zM381.1 259.6c11.98 10.156 39.772 15.417 66.678 15.417 26.947 0 54.717-5.266 66.714-15.423V277.5c0 12.34-27.38 26.1-66.714 26.1-39.298 0-66.678-13.75-66.678-26.1v-17.9zm0 38.296c12.266 11.227 37.494 18.398 66.678 18.398 29.225 0 54.453-7.172 66.714-18.4v20.244c0 12.34-27.38 26.093-66.714 26.093-39.298 0-66.678-13.753-66.678-26.093v-20.233zm0 40.057c12.266 11.232 37.494 18.404 66.678 18.404 29.225 0 54.453-7.172 66.714-18.4v20.245c0 12.34-27.38 26.088-66.714 26.088-39.298 0-66.678-13.748-66.678-26.088v-20.24z"/><script/></svg>